<svg width="42" height="42" viewBox="0 0 42 42" fill="none" xmlns="http://www.w3.org/2000/svg">
    <path d="M21 42C21 42 36.75 27.0743 36.75 15.75C36.75 11.5728 35.0906 7.56677 32.1369 4.61307C29.1832 1.65937 25.1772 0 21 0C16.8228 0 12.8168 1.65937 9.86307 4.61307C6.90937 7.56677 5.25 11.5728 5.25 15.75C5.25 27.0743 21 42 21 42Z"
          fill="#4199A4"/>
    <g clip-path="url(#clip0_1663_718)">
        <path d="M21.6573 23.9475C21.9064 23.9475 22.1396 23.8457 22.3305 23.6857C23.1197 23.024 24.1202 22.6577 25.158 22.6577H29.5338C30.1108 22.6577 30.5788 22.1897 30.5788 21.6127V10.1425H11.4207V21.6127C11.4207 22.1897 11.8887 22.6577 12.4657 22.6577H16.8415C17.8793 22.6577 18.8798 23.0246 19.669 23.6857C19.8599 23.8457 20.0931 23.9475 20.3422 23.9475H21.6573Z"
              fill="#007FF2"/>
        <path d="M21 22.9025C21.8256 22.0769 22.9454 21.6127 24.113 21.6127H29.5338C30.1107 21.6127 30.5788 21.1447 30.5788 20.5677V9.09749C30.5788 8.52054 30.1107 8.05249 29.5338 8.05249H24.113C22.9454 8.05249 21.8256 8.51614 21 9.34224"
              fill="#C0C7D1"/>
        <path d="M21 22.9025C20.1745 22.0769 19.0547 21.6127 17.887 21.6127H12.4657C11.8887 21.6127 11.4207 21.1447 11.4207 20.5677V9.09749C11.4207 8.52054 11.8887 8.05249 12.4657 8.05249H17.8865C19.0541 8.05249 20.1739 8.51614 20.9995 9.34224"
              fill="#E5E8EB"/>
    </g>
    <defs>
        <clipPath id="clip0_1663_718">
            <rect width="22" height="22" fill="white" transform="translate(10 5)"/>
        </clipPath>
    </defs>
</svg>
