<svg width="42" height="42" viewBox="0 0 42 42" fill="none" xmlns="http://www.w3.org/2000/svg">
    <path d="M21 42C21 42 36.75 27.0743 36.75 15.75C36.75 11.5728 35.0906 7.56677 32.1369 4.61307C29.1832 1.65937 25.1772 0 21 0C16.8228 0 12.8168 1.65937 9.86307 4.61307C6.90937 7.56677 5.25 11.5728 5.25 15.75C5.25 27.0743 21 42 21 42Z"
          fill="#4199A4"/>
    <g clip-path="url(#clip0_1663_776)">
        <path d="M21 24.7714C26.3157 24.7714 30.625 20.4621 30.625 15.1464C30.625 9.83062 26.3157 5.52136 21 5.52136C15.6843 5.52136 11.375 9.83062 11.375 15.1464C11.375 20.4621 15.6843 24.7714 21 24.7714Z"
              fill="#EBEBEB"/>
        <path d="M21 22.3064C24.9543 22.3064 28.1599 19.1008 28.1599 15.1465C28.1599 11.1922 24.9543 7.98657 21 7.98657C17.0457 7.98657 13.8401 11.1922 13.8401 15.1465C13.8401 19.1008 17.0457 22.3064 21 22.3064Z"
              fill="#F3F3F3"/>
        <path d="M25.3197 11.292L24.5635 18.9414H23.3056L22.6242 14.7702C22.4531 13.1422 23.3826 11.5978 24.9012 10.9868C25.1107 10.9026 25.3357 11.0665 25.3197 11.292Z"
              fill="#B7B7B7"/>
        <path d="M23.3055 18.9414L22.7978 25.6767C22.7874 26.1167 23.141 26.4786 23.581 26.4786H24.2856C24.7256 26.4786 25.0792 26.1167 25.0688 25.6767L24.5628 18.9414H23.3055Z"
              fill="#767676"/>
        <path d="M18.2125 18.9414L17.7048 25.6767C17.6944 26.1167 18.048 26.4786 18.488 26.4786H19.1926C19.6326 26.4786 19.9862 26.1167 19.9758 25.6767L19.4698 18.9414H18.2119H18.2125Z"
              fill="#767676"/>
        <path d="M19.4467 18.6081C19.45 18.134 19.8207 18.0014 19.8207 18.0014L19.8185 17.9992C19.8339 17.9915 19.8504 17.9877 19.8664 17.98L20.7937 17.6511C21.3002 17.392 21.6088 16.748 21.5433 16.0847L20.8894 11.3376C20.8597 11.1237 20.6771 10.9647 20.4615 10.9647C20.2206 10.9647 20.0264 11.1616 20.0292 11.4025L20.0803 15.4951C20.0803 15.6474 20.0061 15.7838 19.8906 15.8427C19.8136 15.8823 19.7261 15.8823 19.6491 15.8427C19.5342 15.7838 19.4594 15.6474 19.4594 15.4951L19.3895 11.3893C19.3857 11.1534 19.1932 10.9647 18.9572 10.9647H18.7235C18.4875 10.9647 18.2956 11.1539 18.2912 11.3893L18.2213 15.4951C18.2213 15.6474 18.1471 15.7838 18.031 15.8427C17.9546 15.8823 17.8666 15.8823 17.7896 15.8427C17.6746 15.7838 17.5998 15.6474 17.5998 15.4951L17.6515 11.4025C17.6548 11.1616 17.4601 10.9647 17.2192 10.9647C17.0031 10.9647 16.8205 11.1242 16.7913 11.3376L16.1374 16.0847C16.0719 16.7474 16.3805 17.3915 16.887 17.6511L17.8143 17.98C17.8292 17.9877 17.8451 17.9915 17.8605 17.9987L17.8578 18.0014C17.8578 18.0014 18.2455 18.1373 18.234 18.6345L18.2125 18.9414H19.4704L19.4467 18.6081Z"
              fill="#B7B7B7"/>
    </g>
    <defs>
        <clipPath id="clip0_1663_776">
            <rect width="22" height="22" fill="white" transform="translate(10 5)"/>
        </clipPath>
    </defs>
</svg>
