<svg width="42" height="42" viewBox="0 0 42 42" fill="none" xmlns="http://www.w3.org/2000/svg">
    <path d="M21 42C21 42 36.75 27.0743 36.75 15.75C36.75 11.5728 35.0906 7.56677 32.1369 4.61307C29.1832 1.65937 25.1772 0 21 0C16.8228 0 12.8168 1.65937 9.86307 4.61307C6.90937 7.56677 5.25 11.5728 5.25 15.75C5.25 27.0743 21 42 21 42Z"
          fill="#4199A4"/>
    <g clip-path="url(#clip0_1663_1075)">
        <path d="M29.5085 16.286C29.5085 16.6325 29.448 16.968 29.3325 17.2925L29.151 17.6995C29.1455 17.7105 29.14 17.716 29.1345 17.727C29.096 17.7985 29.052 17.87 29.008 17.9415C28.9805 17.9855 28.953 18.035 28.92 18.0845C28.8485 18.1835 28.777 18.2825 28.6945 18.3815C28.6835 18.398 28.6725 18.409 28.6615 18.42C28.568 18.53 28.4745 18.64 28.37 18.7445C28.282 18.827 28.183 18.9095 28.0895 18.992C28.1445 18.7775 28.183 18.563 28.183 18.343C28.183 17.001 27.083 15.813 25.3835 15.0485L25.9005 13.217C25.928 13.118 25.9005 13.019 25.8455 12.931L26.346 12.4525C27.237 12.876 27.9795 13.393 28.524 13.987C29.151 14.6745 29.5085 15.4555 29.5085 16.286Z"
              fill="#3D3D3D"/>
        <path d="M23.9315 11.6659L20.0265 12.4744C18.613 12.7164 17.436 13.6569 16.875 14.9384C15.027 15.6919 13.817 16.9349 13.817 18.3429C13.817 18.5629 13.8555 18.7774 13.9105 18.9919C13.817 18.9094 13.718 18.8269 13.6355 18.7444C13.41 18.5189 13.223 18.2769 13.058 18.0294L13.08 18.0789C12.9205 17.8424 12.794 17.6059 12.695 17.3529C12.695 17.3474 12.6895 17.3419 12.684 17.3309C12.6235 17.1714 12.5795 17.0064 12.5465 16.8359C12.5465 16.8322 12.5446 16.8286 12.541 16.8249C12.508 16.6489 12.4915 16.4674 12.4915 16.2859C12.4915 15.4554 12.849 14.6744 13.476 13.9869C14.906 12.4249 17.733 11.3579 21 11.3579C22.034 11.3579 23.0185 11.4734 23.9315 11.6659Z"
              fill="#3D3D3D"/>
        <path d="M28.1842 18.3435C28.1842 17.002 27.0837 15.8118 25.3814 15.0506L24.9189 16.6759C24.9156 16.8959 24.8358 17.0933 24.6961 17.2699C24.827 17.2374 24.9618 17.216 25.102 17.216C25.8165 17.216 26.4281 17.6571 26.6789 18.2824C26.7999 18.5844 26.5837 18.9149 26.2581 18.9149H23.9448C23.6198 18.9149 23.4031 18.5844 23.5241 18.2824C23.5802 18.1433 23.6561 18.0151 23.7452 17.8969C21.4319 18.8121 16.5006 18.3231 16.5286 16.545C16.5374 15.9741 16.6612 15.4318 16.8757 14.939C15.0266 15.6919 13.8149 16.9349 13.8149 18.3435C13.8149 18.5646 13.8534 18.7796 13.9106 18.9908C14.0008 19.0711 14.0828 19.1547 14.1812 19.2312C14.1862 19.235 14.1906 19.2394 14.1955 19.2433C14.4012 19.4022 14.6262 19.5518 14.8627 19.6948C14.9347 19.7383 15.0134 19.7784 15.0882 19.8202C15.2537 19.9132 15.4237 20.0034 15.6019 20.0886C15.7064 20.1387 15.8136 20.186 15.922 20.2327C17.3399 20.8471 19.0916 21.2167 20.999 21.2167C22.918 21.2167 24.6807 20.8432 26.1025 20.2217C26.1883 20.1843 26.2746 20.1475 26.3582 20.1079C26.6101 19.9891 26.8549 19.8648 27.0815 19.73C27.0886 19.7256 27.0952 19.7207 27.1024 19.7168C27.3301 19.5804 27.5413 19.4352 27.7409 19.2851C27.786 19.251 27.8289 19.2163 27.8724 19.1817C27.9494 19.1201 28.0154 19.0541 28.088 18.9903C28.1452 18.7785 28.1837 18.5635 28.1837 18.3429L28.1842 18.3435ZM17.1089 18.7901H15.5496C15.3153 18.7901 15.1382 18.5541 15.2273 18.3374C15.4055 17.904 15.8318 17.5988 16.3295 17.5988C16.8273 17.5988 17.2535 17.904 17.4317 18.3374C17.5208 18.5541 17.3432 18.7901 17.1089 18.7901ZM19.7665 20.3339C19.5322 20.3339 19.3551 20.098 19.4442 19.8813C19.6224 19.4479 20.0486 19.1426 20.5464 19.1426C21.0441 19.1426 21.4704 19.4479 21.6486 19.8813C21.7377 20.098 21.5606 20.3339 21.3263 20.3339H19.7665Z"
              fill="#FFC450"/>
        <path d="M21.6485 19.8809C21.4703 19.4475 21.0441 19.1422 20.5463 19.1422C20.0486 19.1422 19.6223 19.4475 19.4441 19.8809C19.355 20.0976 19.5321 20.3335 19.7664 20.3335H21.3257C21.56 20.3335 21.7371 20.0976 21.648 19.8809H21.6485Z"
              fill="#FFE3A0"/>
        <path d="M16.3295 17.5983C15.8318 17.5983 15.4055 17.9035 15.2273 18.3369C15.1382 18.5536 15.3153 18.7896 15.5496 18.7896H17.1089C17.3432 18.7896 17.5203 18.5536 17.4312 18.3369C17.253 17.9035 16.8267 17.5983 16.329 17.5983H16.3295Z"
              fill="#036D50"/>
        <path d="M28.5626 11.3745C28.5516 11.8585 28.1501 12.2435 27.6661 12.2325L27.1106 12.2215L26.5991 12.2105L26.3461 12.4525L25.8456 12.931C25.8346 12.9145 25.8291 12.8925 25.8126 12.876L24.6741 11.688C24.6631 11.677 24.6466 11.6715 24.6301 11.6605L25.3836 10.94L25.3946 10.423L25.4056 9.87845C25.4166 9.38895 25.8181 9.00945 26.3021 9.01495C26.7916 9.02595 27.1711 9.42745 27.1656 9.91695L27.1491 10.4615L27.7046 10.478C28.1886 10.489 28.5736 10.8905 28.5626 11.3745Z"
              fill="#D5D5D5"/>
        <path d="M25.9004 13.2169L25.3834 15.0484L24.9214 16.6764C24.9159 16.8964 24.8389 17.0944 24.6959 17.2704C24.3109 17.3639 23.9754 17.5894 23.7444 17.8974C21.4344 18.8104 16.5009 18.3209 16.5284 16.5444C16.5394 15.9724 16.6604 15.4334 16.8749 14.9384C17.4359 13.6569 18.6129 12.7164 20.0264 12.4744L23.9314 11.6659L24.3329 11.5834C24.4429 11.5614 24.5474 11.5944 24.6299 11.6604C24.6464 11.6714 24.6629 11.6769 24.6739 11.6879L25.8124 12.8759C25.8289 12.8924 25.8344 12.9144 25.8454 12.9309C25.9004 13.0189 25.9279 13.1179 25.9004 13.2169Z"
              fill="#F77F00"/>
        <path d="M23.7466 17.897C23.6575 18.0152 23.5816 18.1434 23.5255 18.2825C23.4045 18.5845 23.6206 18.915 23.9462 18.915H26.2595C26.5846 18.915 26.8013 18.5845 26.6803 18.2825C26.4295 17.6577 25.8179 17.2161 25.1034 17.2161C24.9626 17.2161 24.8279 17.2375 24.6975 17.27C24.312 17.3651 23.9787 17.589 23.7477 17.897H23.7466Z"
              fill="#C50010"/>
        <path d="M29.1504 13.9886H28.5234C29.1504 14.6756 29.509 15.4571 29.509 16.2882C29.509 16.6325 29.4474 16.968 29.3314 17.2919C29.2819 17.4305 29.2197 17.5669 29.1499 17.7006C29.1372 17.7253 29.1268 17.7501 29.113 17.7743L28.7456 18.5877H29.1504C30.4204 18.5877 31.45 17.5581 31.45 16.2882C31.45 15.0182 30.4204 13.9886 29.1504 13.9886Z"
              fill="#4E5968"/>
        <path d="M12.6967 17.3553C12.6934 17.3476 12.689 17.3393 12.6862 17.3316C12.6257 17.1694 12.5784 17.0038 12.5465 16.8355L12.541 16.8234H12.5432V16.8251C12.5102 16.6485 12.491 16.4698 12.491 16.2888C12.491 15.4578 12.8496 14.6762 13.4766 13.9893H12.8496C11.5796 13.9893 10.55 15.0189 10.55 16.2888C10.55 17.5588 11.5796 18.5884 12.8496 18.5884H13.2962L13.0773 18.0774C12.9205 17.8448 12.7907 17.6039 12.6961 17.3558L12.6967 17.3553Z"
              fill="#4E5968"/>
        <path d="M29.1357 17.7249C29.0972 17.7975 29.0532 17.8684 29.0092 17.9394C28.979 17.9878 28.9509 18.0362 28.9179 18.0835C28.8486 18.1847 28.7744 18.2842 28.6941 18.3821C28.6831 18.3953 28.6721 18.4085 28.6611 18.4217C28.5692 18.5312 28.4719 18.639 28.3674 18.7435C28.2821 18.8293 28.1826 18.909 28.0885 18.991C28.0159 19.0542 27.9499 19.1208 27.8729 19.1824C27.8295 19.217 27.7866 19.2517 27.7415 19.2858C27.5418 19.4365 27.3306 19.5817 27.1029 19.7175C27.0958 19.7219 27.0892 19.7269 27.082 19.7307C26.8554 19.8655 26.6107 19.9892 26.3588 20.1086C26.2752 20.1482 26.1888 20.185 26.103 20.2224C24.6807 20.8439 22.9185 21.2174 20.9996 21.2174C19.0922 21.2174 17.3404 20.8478 15.9225 20.2334C15.8142 20.1867 15.7069 20.1388 15.6024 20.0893C15.4242 20.0041 15.2543 19.9139 15.0887 19.8209C15.0139 19.7791 14.9353 19.739 14.8632 19.6955C14.6267 19.5525 14.4018 19.4029 14.1961 19.244C14.1911 19.2401 14.1867 19.2357 14.1818 19.2319C14.0833 19.1554 14.0014 19.0718 13.9112 18.9915C13.8182 18.909 13.7176 18.8298 13.6329 18.7446C13.4074 18.5185 13.2209 18.2782 13.0581 18.0318L13.0774 18.0774L13.2963 18.5884L14.0432 20.3341H14.0531C14.6014 22.4549 17.1859 24.0834 21.0001 24.0834C24.8144 24.0834 27.3988 22.4554 27.9472 20.3341H27.9565L28.7458 18.5884L29.1132 17.7749L29.1357 17.7249Z"
              fill="#4E5968"/>
        <path d="M21.462 8.17352C21.3025 9.09752 20.428 9.71902 19.5095 9.55952C19.383 9.53752 19.262 9.49902 19.1465 9.44952C18.8275 9.82352 18.3325 10.027 17.8155 9.93352C17.04 9.80152 16.5175 9.05352 16.6495 8.27252C16.7815 7.49152 17.524 6.96352 18.305 7.10102H18.3105C18.6405 6.46852 19.3445 6.08902 20.087 6.21552C21.0055 6.37502 21.6215 7.24952 21.462 8.17352Z"
              fill="#D5D5D5"/>
        <path d="M23.0581 9.90159C23.7285 9.90159 24.2719 9.35599 24.2719 8.68224C24.2719 8.00849 23.7285 7.46289 23.0581 7.46289C22.3876 7.46289 21.8442 8.00849 21.8442 8.68224C21.8442 9.35599 22.3876 9.90159 23.0581 9.90159Z"
              fill="#D5D5D5"/>
    </g>
    <defs>
        <clipPath id="clip0_1663_1075">
            <rect width="22" height="22" fill="white" transform="translate(10 5)"/>
        </clipPath>
    </defs>
</svg>
