<svg width="42" height="42" viewBox="0 0 42 42" fill="none" xmlns="http://www.w3.org/2000/svg">
    <path d="M21 42C21 42 36.75 27.0743 36.75 15.75C36.75 11.5728 35.0906 7.56677 32.1369 4.61307C29.1832 1.65937 25.1772 0 21 0C16.8228 0 12.8168 1.65937 9.86307 4.61307C6.90937 7.56677 5.25 11.5728 5.25 15.75C5.25 27.0743 21 42 21 42Z"
          fill="#EA634D"/>
    <g clip-path="url(#clip0_1663_766)">
        <path d="M14.4006 24.3644H27.599C28.2128 24.3644 28.7105 23.8667 28.7105 23.2529V14.3605H13.2891V23.2529C13.2891 23.8667 13.7868 24.3644 14.4006 24.3644Z"
              fill="#D0D5DA"/>
        <path d="M23.9237 14.3605H18.0767V24.3644H23.9237V14.3605Z" fill="#D0D5DA"/>
        <path d="M20.1157 21.1646H21.8845C22.2794 21.1646 22.6 21.4852 22.6 21.8801V24.3645H19.4001V21.8801C19.4001 21.4852 19.7208 21.1646 20.1157 21.1646Z"
              fill="#6B7683"/>
        <path fill-rule="evenodd" clip-rule="evenodd"
              d="M28.8666 7.63562H13.2664C12.6774 7.63562 12.2 8.11302 12.2 8.70207V14.5689C12.2 15.158 12.6774 15.6354 13.2664 15.6354H28.733C29.322 15.6354 29.7994 15.158 29.7994 14.5689V8.56897C29.7994 8.05362 29.3814 7.63562 28.8661 7.63562H28.8666Z"
              fill="#2F81F9"/>
        <path d="M17.975 10.5352H12.2V12.7352H17.975V10.5352Z" fill="#93C9FF"/>
        <path d="M29.7999 10.5352H24.0249V12.7352H29.7999V10.5352Z" fill="#93C9FF"/>
        <path d="M19.9001 13.2852H22.1001C22.4037 13.2852 22.6501 13.0388 22.6501 12.7352V10.5352C22.6501 10.2316 22.4037 9.98523 22.1001 9.98523H19.9001C19.5965 9.98523 19.3501 10.2316 19.3501 10.5352V12.7352C19.3501 13.0388 19.5965 13.2852 19.9001 13.2852Z"
              fill="white"/>
    </g>
    <defs>
        <clipPath id="clip0_1663_766">
            <rect width="22" height="22" fill="white" transform="translate(10 5)"/>
        </clipPath>
    </defs>
</svg>
