<svg width="42" height="42" viewBox="0 0 42 42" fill="none" xmlns="http://www.w3.org/2000/svg">
<path d="M21 42C21 42 36.75 27.0743 36.75 15.75C36.75 11.5728 35.0906 7.56677 32.1369 4.61307C29.1832 1.65937 25.1772 0 21 0C16.8228 0 12.8168 1.65937 9.86307 4.61307C6.90937 7.56677 5.25 11.5728 5.25 15.75C5.25 27.0743 21 42 21 42Z" fill="#EA634D"/>
<g clip-path="url(#clip0_1663_668)">
<path fill-rule="evenodd" clip-rule="evenodd" d="M28.0582 19.619C28.0582 21.6358 24.9413 23.5608 21 23.5608C17.0587 23.5608 13.9419 21.544 13.9419 19.619V14.5771L21 12.469L28.0582 14.4858V19.619Z" fill="#4E5968"/>
<path fill-rule="evenodd" clip-rule="evenodd" d="M10.9169 12.2858L20.0832 6.96899C20.6332 6.60214 21.3664 6.60214 21.9164 6.96899L31.0832 12.2858C31.7251 12.6527 31.7251 13.4777 31.0832 13.844L21.9164 19.1608C21.3664 19.5277 20.6332 19.5277 20.0832 19.1608L10.9169 13.844C10.2751 13.4771 10.2751 12.6521 10.9169 12.2858Z" fill="#6B7683"/>
<path fill-rule="evenodd" clip-rule="evenodd" d="M21.2751 12.5608L20.2669 11.7358L13.8501 15.769V23.469C13.8501 23.8358 14.1251 24.1108 14.4919 24.1108C14.8588 24.1108 15.1338 23.8358 15.1338 23.469V16.4108L21.2751 12.5608Z" fill="#FFC100"/>
<path fill-rule="evenodd" clip-rule="evenodd" d="M22.4669 12.0109C22.4669 12.5609 21.8251 13.019 21.0001 13.019C20.1751 13.019 19.5332 12.5609 19.5332 12.0109C19.5332 11.4609 20.1751 11.0027 21.0001 11.0027C21.8251 10.9109 22.4669 11.4609 22.4669 12.0109Z" fill="#303D4C"/>
<path fill-rule="evenodd" clip-rule="evenodd" d="M14.5832 21.544C13.85 21.544 13.3 22.094 13.3 22.7359V24.64C13.3 24.9254 13.8709 25.3066 14.5375 25.3066C15.2041 25.3066 15.775 25.0211 15.775 24.64V22.7359C15.775 22.094 15.3169 21.544 14.5832 21.544Z" fill="#FFDA16"/>
</g>
<defs>
<clipPath id="clip0_1663_668">
<rect width="22" height="22" fill="white" transform="translate(10 5)"/>
</clipPath>
</defs>
</svg>
