<svg width="42" height="42" viewBox="0 0 42 42" fill="none" xmlns="http://www.w3.org/2000/svg">
    <path d="M21 42C21 42 36.75 27.0743 36.75 15.75C36.75 11.5728 35.0906 7.56677 32.1369 4.61307C29.1832 1.65937 25.1772 0 21 0C16.8228 0 12.8168 1.65937 9.86307 4.61307C6.90937 7.56677 5.25 11.5728 5.25 15.75C5.25 27.0743 21 42 21 42Z"
          fill="#EA634D"/>
    <g clip-path="url(#clip0_1663_768)">
        <path d="M15.8338 19.6036C15.8129 19.7131 15.8003 19.8247 15.8003 19.9375C15.8003 21.6023 18.1301 22.9515 21.0044 22.9515C23.8787 22.9515 26.2085 21.6018 26.2085 19.9375C26.2085 19.8242 26.1958 19.7131 26.1749 19.6036C24.79 20.8092 22.9849 21.5451 21.0044 21.5451C19.0238 21.5451 17.2182 20.8098 15.8338 19.6036Z"
              fill="#AFB7C0"/>
        <path d="M21.0044 9.50726C17.7979 9.50726 15.1222 10.8207 14.4902 12.5691C15.6601 13.8902 18.1692 14.8302 21.0044 14.8302C23.8397 14.8302 26.3493 13.8902 27.5186 12.5691C27.4829 12.4712 27.4383 12.375 27.3899 12.2793C26.5809 10.6777 24.0305 9.50671 21.0039 9.50671L21.0044 9.50726Z"
              fill="#6E4944"/>
        <path d="M28.2216 10.9344C28.2216 11.1269 28.1831 11.3139 28.1281 11.5009C28.0236 11.8749 27.8146 12.2324 27.5176 12.5679C27.4846 12.4689 27.4406 12.3754 27.3911 12.2819C26.5826 10.6759 24.0306 9.50991 21.0056 9.50991C17.7991 9.50991 15.1206 10.8189 14.4881 12.5679C14.0481 12.0674 13.7896 11.5119 13.7896 10.9344C13.7896 8.82241 17.0951 7.03491 21.0056 7.03491C24.9161 7.03491 28.2216 8.82241 28.2216 10.9344Z"
              fill="#D0D5DA"/>
        <path d="M28.8872 11.5284V11.0444L28.8762 11.0774C28.8597 11.3414 28.8157 11.5999 28.7277 11.8529C28.6782 12.0014 28.6122 12.1499 28.5352 12.2929C27.5342 14.1519 24.5422 15.4994 21.0057 15.4994C17.4692 15.4994 14.4717 14.1519 13.4762 12.2929C13.3992 12.1499 13.3332 12.0014 13.2782 11.8529C13.1902 11.5999 13.1462 11.3414 13.1297 11.0774L13.1187 11.0444V13.6624C13.1187 14.5589 13.2782 15.4169 13.5532 16.2254C14.0097 17.5454 14.8017 18.7059 15.8357 19.6024C17.2217 20.8069 19.0257 21.5439 21.0057 21.5439C22.9857 21.5439 24.7897 20.8069 26.1757 19.6024C26.8412 19.0194 27.4132 18.3264 27.8532 17.5509H28.4912C28.9257 17.5509 29.3382 17.4574 29.7122 17.2924C30.7737 16.8249 31.5217 15.7634 31.5217 14.5259C31.5217 12.9914 30.3722 11.7264 28.8872 11.5284ZM28.4912 16.2364H28.4472C28.4508 16.2328 28.4527 16.2291 28.4527 16.2254C28.7332 15.4169 28.8872 14.5589 28.8872 13.6624V12.8704C29.6407 13.0464 30.2017 13.7229 30.2017 14.5259C30.2017 15.4719 29.4372 16.2364 28.4912 16.2364Z"
              fill="#D0D5DA"/>
        <path d="M28.4544 16.2244C28.4527 16.2288 28.4511 16.2326 28.45 16.237H28.4747C28.4681 16.2326 28.4604 16.2288 28.4544 16.2244Z"
              fill="#E5E8EB"/>
        <path d="M28.4933 17.5526H27.8553C27.4131 18.3287 26.8433 19.0206 26.1739 19.6036C26.1948 19.7136 26.2075 19.8247 26.2075 19.9374C26.2075 21.6023 23.8777 22.9514 21.0034 22.9514C18.1291 22.9514 15.7993 21.6017 15.7993 19.9374C15.7993 19.8241 15.8119 19.713 15.8328 19.6036C14.8016 18.7054 14.0079 17.5455 13.5531 16.2244C12.0697 17.2221 11.1677 18.5173 11.1677 19.9374C11.1677 23.0834 15.571 25.6343 21.0028 25.6343C26.4346 25.6343 30.8385 23.084 30.8385 19.9374C30.8385 18.9826 30.4282 18.0845 29.7115 17.2941C29.3381 17.4591 28.9267 17.5526 28.4933 17.5526Z"
              fill="#E5E8EB"/>
        <path d="M28.8487 10.467C28.7937 10.159 28.6892 9.86201 28.5352 9.57601C28.3812 9.29001 28.1777 9.01501 27.9357 8.75651C27.8147 8.62451 27.6827 8.50351 27.5452 8.37701C27.2592 8.13501 26.9347 7.90951 26.5772 7.70601C25.1527 6.87551 23.1837 6.36401 21.0057 6.36401C18.8277 6.36401 16.8532 6.87551 15.4287 7.70601C15.0712 7.90951 14.7522 8.13501 14.4662 8.37701C14.3232 8.50351 14.1912 8.62451 14.0702 8.75651C13.8282 9.01501 13.6302 9.29001 13.4762 9.57601C13.3222 9.86201 13.2122 10.159 13.1627 10.467C13.1352 10.621 13.1187 10.775 13.1187 10.9345C13.1187 10.984 13.1297 11.028 13.1297 11.0775C13.1462 11.3415 13.1902 11.6 13.2782 11.853C13.3332 12.0015 13.3992 12.15 13.4762 12.293C14.4717 14.152 17.4637 15.4995 21.0057 15.4995C24.5477 15.4995 27.5342 14.152 28.5352 12.293C28.6122 12.15 28.6782 12.0015 28.7277 11.853C28.8157 11.6 28.8597 11.3415 28.8762 11.0775C28.8817 11.028 28.8872 10.984 28.8872 10.9345C28.8872 10.775 28.8762 10.621 28.8487 10.467ZM28.1282 11.501C28.0237 11.875 27.8147 12.2325 27.5177 12.568C26.3517 13.888 23.8382 14.8285 21.0057 14.8285C18.1732 14.8285 15.6597 13.888 14.4882 12.568C14.0482 12.0675 13.7897 11.512 13.7897 10.9345C13.7897 8.82251 17.0952 7.03501 21.0057 7.03501C24.9162 7.03501 28.2217 8.82251 28.2217 10.9345C28.2217 11.127 28.1832 11.314 28.1282 11.501Z"
              fill="#E5E8EB"/>
    </g>
    <defs>
        <clipPath id="clip0_1663_768">
            <rect width="22" height="22" fill="white" transform="translate(10 5)"/>
        </clipPath>
    </defs>
</svg>
