<svg width="42" height="42" viewBox="0 0 42 42" fill="none" xmlns="http://www.w3.org/2000/svg">
    <path d="M21 42C21 42 36.75 27.0743 36.75 15.75C36.75 11.5728 35.0906 7.56677 32.1369 4.61307C29.1832 1.65937 25.1772 0 21 0C16.8228 0 12.8168 1.65937 9.86307 4.61307C6.90937 7.56677 5.25 11.5728 5.25 15.75C5.25 27.0743 21 42 21 42Z"
          fill="#E5A234"/>
    <g clip-path="url(#clip0_1663_720)">
        <path d="M21 25.5749C26.2881 25.5749 30.5749 21.2881 30.5749 16C30.5749 10.7119 26.2881 6.42505 21 6.42505C15.7119 6.42505 11.425 10.7119 11.425 16C11.425 21.2881 15.7119 25.5749 21 25.5749Z"
              fill="#FFC84D"/>
        <path d="M21 22.4872C21.6236 22.4872 22.1291 21.9817 22.1291 21.3581C22.1291 20.7345 21.6236 20.2289 21 20.2289C20.3764 20.2289 19.8708 20.7345 19.8708 21.3581C19.8708 21.9817 20.3764 22.4872 21 22.4872Z"
              fill="#FF6D00"/>
        <path d="M24.746 14.196H22.2864C22.0741 14.196 21.8811 14.0739 21.7898 13.8819C21.6985 13.69 21.726 13.4628 21.8602 13.2984L23.1939 11.6621H22.2204C21.9163 11.6621 21.6704 11.4157 21.6704 11.1121C21.6704 10.8085 21.9163 10.5621 22.2204 10.5621H24.3517C24.564 10.5621 24.757 10.6842 24.8483 10.8762C24.9396 11.0681 24.9121 11.2953 24.7779 11.4597L23.4442 13.096H24.7455C25.0496 13.096 25.2955 13.3424 25.2955 13.646C25.2955 13.9496 25.0496 14.196 24.7455 14.196H24.746Z"
              fill="#6391FF"/>
        <path d="M29.3619 12.849H26.0404C25.8281 12.849 25.6351 12.7269 25.5438 12.535C25.4525 12.343 25.48 12.1159 25.6142 11.9514L27.6712 9.42745H25.9519C25.6477 9.42745 25.4019 9.18105 25.4019 8.87745C25.4019 8.57385 25.6477 8.32745 25.9519 8.32745H28.8289C29.0412 8.32745 29.2343 8.44955 29.3256 8.6415C29.4169 8.83345 29.3888 9.0606 29.2552 9.22505L27.1982 11.749H29.3619C29.666 11.749 29.9119 11.9954 29.9119 12.299C29.9119 12.6026 29.666 12.849 29.3619 12.849Z"
              fill="#6391FF"/>
        <path d="M16.7068 16.8382C16.5709 16.7711 16.4147 16.8888 16.445 17.0373C16.6127 17.8617 17.3222 18.481 18.172 18.481C19.0217 18.481 19.7312 17.8617 19.899 17.0373C19.9292 16.8888 19.773 16.7711 19.6372 16.8382C19.3407 16.9845 18.8358 17.1687 18.172 17.1687C17.5081 17.1687 17.0032 16.9845 16.7068 16.8382Z"
              fill="black"/>
        <path d="M25.2934 16.8382C25.4293 16.7711 25.5855 16.8888 25.5552 17.0373C25.3875 17.8617 24.678 18.481 23.8282 18.481C22.9785 18.481 22.269 17.8617 22.1012 17.0373C22.071 16.8888 22.2272 16.7711 22.363 16.8382C22.6595 16.9845 23.1644 17.1687 23.8282 17.1687C24.4915 17.1687 24.997 16.9845 25.2934 16.8382Z"
              fill="black"/>
    </g>
    <defs>
        <clipPath id="clip0_1663_720">
            <rect width="22" height="22" fill="white" transform="translate(10 5)"/>
        </clipPath>
    </defs>
</svg>
