<svg width="42" height="42" viewBox="0 0 42 42" fill="none" xmlns="http://www.w3.org/2000/svg">
    <path d="M21 42C21 42 36.75 27.0743 36.75 15.75C36.75 11.5728 35.0906 7.56677 32.1369 4.61307C29.1832 1.65937 25.1772 0 21 0C16.8228 0 12.8168 1.65937 9.86307 4.61307C6.90937 7.56677 5.25 11.5728 5.25 15.75C5.25 27.0743 21 42 21 42Z"
          fill="#E5A234"/>
    <g clip-path="url(#clip0_1698_639)">
        <path d="M27.8162 9.59906H14.1839C13.6047 9.59906 13.135 10.0688 13.135 10.6479V24.4161C13.135 25.0409 13.6416 25.5474 14.2664 25.5474H27.7342C28.359 25.5474 28.8656 25.0409 28.8656 24.4161V10.6474C28.8656 10.0682 28.3959 9.59851 27.8167 9.59851L27.8162 9.59906Z"
              fill="#D0D5DA"/>
        <path d="M18.1163 19.6905C18.1163 19.8351 17.9991 19.9528 17.8539 19.9528H16.8051C16.6604 19.9528 16.5427 19.8357 16.5427 19.6905V18.6416C16.5427 18.497 16.6599 18.3793 16.8051 18.3793H17.8539C17.9986 18.3793 18.1163 18.4964 18.1163 18.6416V19.6905ZM18.1163 16.0203C18.1163 16.165 17.9991 16.2827 17.8539 16.2827H16.8051C16.6604 16.2827 16.5427 16.1655 16.5427 16.0203V14.9715C16.5427 14.8268 16.6599 14.7091 16.8051 14.7091H17.8539C17.9986 14.7091 18.1163 14.8263 18.1163 14.9715V16.0203ZM21.7864 19.6905C21.7864 19.8351 21.6693 19.9528 21.5241 19.9528H20.4752C20.3306 19.9528 20.2129 19.8357 20.2129 19.6905V18.6416C20.2129 18.497 20.33 18.3793 20.4752 18.3793H21.5241C21.6687 18.3793 21.7864 18.4964 21.7864 18.6416V19.6905ZM21.7864 16.0203C21.7864 16.165 21.6693 16.2827 21.5241 16.2827H20.4752C20.3306 16.2827 20.2129 16.1655 20.2129 16.0203V14.9715C20.2129 14.8268 20.33 14.7091 20.4752 14.7091H21.5241C21.6687 14.7091 21.7864 14.8263 21.7864 14.9715V16.0203ZM25.4566 19.6905C25.4566 19.8351 25.3394 19.9528 25.1942 19.9528H24.1454C24.0007 19.9528 23.883 19.8357 23.883 19.6905V18.6416C23.883 18.497 24.0002 18.3793 24.1454 18.3793H25.1942C25.3389 18.3793 25.4566 18.4964 25.4566 18.6416V19.6905ZM25.4566 16.0203C25.4566 16.165 25.3394 16.2827 25.1942 16.2827H24.1454C24.0007 16.2827 23.883 16.1655 23.883 16.0203V14.9715C23.883 14.8268 24.0002 14.7091 24.1454 14.7091H25.1942C25.3389 14.7091 25.4566 14.8263 25.4566 14.9715V16.0203Z"
              fill="#8A94A0"/>
        <path d="M20.2652 22.7194H21.7348C22.1099 22.7194 22.414 23.0235 22.414 23.3986V25.5475H19.5859V23.3986C19.5859 23.0235 19.8901 22.7194 20.2652 22.7194Z"
              fill="#6B7683"/>
        <path d="M23.2259 6.45312H18.7742C18.266 6.45312 17.854 6.86509 17.854 7.37328V11.825C17.854 12.3332 18.266 12.7451 18.7742 12.7451H23.2259C23.734 12.7451 24.146 12.3332 24.146 11.825V7.37328C24.146 6.86509 23.734 6.45312 23.2259 6.45312Z"
              fill="#EF4452"/>
        <path d="M22.573 8.98745H21.6116V7.90615C21.6116 7.7615 21.4944 7.6438 21.3492 7.6438H20.6502C20.5055 7.6438 20.3878 7.76095 20.3878 7.90615V8.98745H19.4264C19.2818 8.98745 19.1641 9.1046 19.1641 9.2498V9.94885C19.1641 10.0935 19.2812 10.2112 19.4264 10.2112H20.3878V11.2925C20.3878 11.4371 20.505 11.5548 20.6502 11.5548H21.3492C21.4939 11.5548 21.6116 11.4377 21.6116 11.2925V10.2112H22.573C22.7176 10.2112 22.8353 10.094 22.8353 9.94885V9.2498C22.8353 9.10515 22.7182 8.98745 22.573 8.98745Z"
              fill="white"/>
    </g>
    <defs>
        <clipPath id="clip0_1698_639">
            <rect width="22" height="22" fill="white" transform="translate(10 5)"/>
        </clipPath>
    </defs>
</svg>
