<svg width="22" height="22" viewBox="0 0 22 22" fill="none" xmlns="http://www.w3.org/2000/svg">
    <g clip-path="url(#clip0_1663_962)">
        <path d="M5.83384 14.6036C5.81294 14.7131 5.80029 14.8247 5.80029 14.9375C5.80029 16.6023 8.13009 17.9515 11.0044 17.9515C13.8787 17.9515 16.2085 16.6018 16.2085 14.9375C16.2085 14.8242 16.1958 14.7131 16.1749 14.6036C14.79 15.8092 12.9849 16.5451 11.0044 16.5451C9.02384 16.5451 7.21819 15.8098 5.83384 14.6036Z"
              fill="#AFB7C0"/>
        <path d="M11.0044 4.50726C7.79793 4.50726 5.12218 5.82066 4.49023 7.56911C5.66008 8.89021 8.16918 9.83016 11.0044 9.83016C13.8397 9.83016 16.3493 8.89021 17.5186 7.56911C17.4829 7.47121 17.4383 7.37496 17.3899 7.27926C16.5809 5.67766 14.0305 4.50671 11.0039 4.50671L11.0044 4.50726Z"
              fill="#6E4944"/>
        <path d="M18.2216 5.93441C18.2216 6.12691 18.1831 6.31391 18.1281 6.50091C18.0236 6.87491 17.8146 7.23241 17.5176 7.56791C17.4846 7.46891 17.4406 7.37541 17.3911 7.28191C16.5826 5.67591 14.0306 4.50991 11.0056 4.50991C7.79905 4.50991 5.12055 5.81891 4.48805 7.56791C4.04805 7.06741 3.78955 6.51191 3.78955 5.93441C3.78955 3.82241 7.09505 2.03491 11.0056 2.03491C14.9161 2.03491 18.2216 3.82241 18.2216 5.93441Z"
              fill="#D0D5DA"/>
        <path d="M18.8872 6.52843V6.04443L18.8762 6.07743C18.8597 6.34143 18.8157 6.59993 18.7277 6.85293C18.6782 7.00143 18.6122 7.14993 18.5352 7.29293C17.5342 9.15193 14.5422 10.4994 11.0057 10.4994C7.46915 10.4994 4.47165 9.15193 3.47615 7.29293C3.39915 7.14993 3.33315 7.00143 3.27815 6.85293C3.19015 6.59993 3.14615 6.34143 3.12965 6.07743L3.11865 6.04443V8.66243C3.11865 9.55893 3.27815 10.4169 3.55315 11.2254C4.00965 12.5454 4.80165 13.7059 5.83565 14.6024C7.22165 15.8069 9.02565 16.5439 11.0057 16.5439C12.9857 16.5439 14.7897 15.8069 16.1757 14.6024C16.8412 14.0194 17.4132 13.3264 17.8532 12.5509H18.4912C18.9257 12.5509 19.3382 12.4574 19.7122 12.2924C20.7737 11.8249 21.5217 10.7634 21.5217 9.52593C21.5217 7.99143 20.3722 6.72643 18.8872 6.52843ZM18.4912 11.2364H18.4472C18.4508 11.2328 18.4527 11.2291 18.4527 11.2254C18.7332 10.4169 18.8872 9.55893 18.8872 8.66243V7.87043C19.6407 8.04643 20.2017 8.72293 20.2017 9.52593C20.2017 10.4719 19.4372 11.2364 18.4912 11.2364Z"
              fill="#D0D5DA"/>
        <path d="M18.4544 11.2244C18.4527 11.2288 18.4511 11.2326 18.45 11.237H18.4747C18.4681 11.2326 18.4604 11.2288 18.4544 11.2244Z"
              fill="#E5E8EB"/>
        <path d="M18.4933 12.5526H17.8553C17.4131 13.3287 16.8433 14.0206 16.1739 14.6036C16.1948 14.7136 16.2075 14.8247 16.2075 14.9374C16.2075 16.6023 13.8777 17.9514 11.0034 17.9514C8.12908 17.9514 5.79927 16.6017 5.79927 14.9374C5.79927 14.8241 5.81192 14.713 5.83282 14.6036C4.80157 13.7054 4.00792 12.5455 3.55307 11.2244C2.06972 12.2221 1.16772 13.5173 1.16772 14.9374C1.16772 18.0834 5.57102 20.6343 11.0028 20.6343C16.4346 20.6343 20.8385 18.084 20.8385 14.9374C20.8385 13.9826 20.4282 13.0845 19.7115 12.2941C19.3381 12.4591 18.9267 12.5526 18.4933 12.5526Z"
              fill="#E5E8EB"/>
        <path d="M18.8487 5.46701C18.7937 5.15901 18.6892 4.86201 18.5352 4.57601C18.3812 4.29001 18.1777 4.01501 17.9357 3.75651C17.8147 3.62451 17.6827 3.50351 17.5452 3.37701C17.2592 3.13501 16.9347 2.90951 16.5772 2.70601C15.1527 1.87551 13.1837 1.36401 11.0057 1.36401C8.82765 1.36401 6.85315 1.87551 5.42865 2.70601C5.07115 2.90951 4.75215 3.13501 4.46615 3.37701C4.32315 3.50351 4.19115 3.62451 4.07015 3.75651C3.82815 4.01501 3.63015 4.29001 3.47615 4.57601C3.32215 4.86201 3.21215 5.15901 3.16265 5.46701C3.13515 5.62101 3.11865 5.77501 3.11865 5.93451C3.11865 5.98401 3.12965 6.02801 3.12965 6.07751C3.14615 6.34151 3.19015 6.60001 3.27815 6.85301C3.33315 7.00151 3.39915 7.15001 3.47615 7.29301C4.47165 9.15201 7.46365 10.4995 11.0057 10.4995C14.5477 10.4995 17.5342 9.15201 18.5352 7.29301C18.6122 7.15001 18.6782 7.00151 18.7277 6.85301C18.8157 6.60001 18.8597 6.34151 18.8762 6.07751C18.8817 6.02801 18.8872 5.98401 18.8872 5.93451C18.8872 5.77501 18.8762 5.62101 18.8487 5.46701ZM18.1282 6.50101C18.0237 6.87501 17.8147 7.23251 17.5177 7.56801C16.3517 8.88801 13.8382 9.82851 11.0057 9.82851C8.17315 9.82851 5.65965 8.88801 4.48815 7.56801C4.04815 7.06751 3.78965 6.51201 3.78965 5.93451C3.78965 3.82251 7.09515 2.03501 11.0057 2.03501C14.9162 2.03501 18.2217 3.82251 18.2217 5.93451C18.2217 6.12701 18.1832 6.31401 18.1282 6.50101Z"
              fill="#E5E8EB"/>
    </g>
    <defs>
        <clipPath id="clip0_1663_962">
            <rect width="22" height="22" fill="white"/>
        </clipPath>
    </defs>
</svg>
