<svg width="22" height="22" viewBox="0 0 22 22" fill="none" xmlns="http://www.w3.org/2000/svg">
    <g clip-path="url(#clip0_1663_848)">
        <path d="M11 19.7714C16.3157 19.7714 20.625 15.4621 20.625 10.1464C20.625 4.83062 16.3157 0.521362 11 0.521362C5.68426 0.521362 1.375 4.83062 1.375 10.1464C1.375 15.4621 5.68426 19.7714 11 19.7714Z"
              fill="#EBEBEB"/>
        <path d="M11 17.3064C14.9543 17.3064 18.1599 14.1008 18.1599 10.1465C18.1599 6.19217 14.9543 2.98657 11 2.98657C7.04568 2.98657 3.84009 6.19217 3.84009 10.1465C3.84009 14.1008 7.04568 17.3064 11 17.3064Z"
              fill="#F3F3F3"/>
        <path d="M15.3197 6.29203L14.5635 13.9414H13.3056L12.6242 9.77023C12.4531 8.14223 13.3826 6.59783 14.9012 5.98678C15.1107 5.90263 15.3357 6.06653 15.3197 6.29203Z"
              fill="#B7B7B7"/>
        <path d="M13.3055 13.9414L12.7978 20.6767C12.7874 21.1167 13.141 21.4786 13.581 21.4786H14.2856C14.7256 21.4786 15.0792 21.1167 15.0688 20.6767L14.5628 13.9414H13.3055Z"
              fill="#767676"/>
        <path d="M8.21247 13.9414L7.70482 20.6767C7.69437 21.1167 8.04802 21.4786 8.48802 21.4786H9.19257C9.63257 21.4786 9.98622 21.1167 9.97577 20.6767L9.46977 13.9414H8.21192H8.21247Z"
              fill="#767676"/>
        <path d="M9.44672 13.6081C9.45002 13.134 9.82072 13.0014 9.82072 13.0014L9.81852 12.9992C9.83392 12.9915 9.85042 12.9877 9.86637 12.98L10.7937 12.6511C11.3002 12.392 11.6088 11.748 11.5433 11.0847L10.8894 6.33762C10.8597 6.12367 10.6771 5.96472 10.4615 5.96472C10.2206 5.96472 10.0264 6.16162 10.0292 6.40252L10.0803 10.4951C10.0803 10.6474 10.0061 10.7838 9.89057 10.8427C9.81357 10.8823 9.72612 10.8823 9.64912 10.8427C9.53417 10.7838 9.45937 10.6474 9.45937 10.4951L9.38952 6.38932C9.38567 6.15337 9.19317 5.96472 8.95722 5.96472H8.72347C8.48752 5.96472 8.29557 6.15392 8.29117 6.38932L8.22132 10.4951C8.22132 10.6474 8.14707 10.7838 8.03102 10.8427C7.95457 10.8823 7.86657 10.8823 7.78957 10.8427C7.67462 10.7838 7.59982 10.6474 7.59982 10.4951L7.65152 6.40252C7.65482 6.16162 7.46012 5.96472 7.21922 5.96472C7.00307 5.96472 6.82047 6.12422 6.79132 6.33762L6.13737 11.0847C6.07192 11.7474 6.38047 12.3915 6.88702 12.6511L7.81432 12.98C7.82917 12.9877 7.84512 12.9915 7.86052 12.9987L7.85777 13.0014C7.85777 13.0014 8.24552 13.1373 8.23397 13.6345L8.21252 13.9414H9.47037L9.44672 13.6081Z"
              fill="#B7B7B7"/>
    </g>
    <defs>
        <clipPath id="clip0_1663_848">
            <rect width="22" height="22" fill="white"/>
        </clipPath>
    </defs>
</svg>
