<svg width="22" height="22" viewBox="0 0 22 22" fill="none" xmlns="http://www.w3.org/2000/svg">
    <g clip-path="url(#clip0_1663_861)">
        <path d="M4.40061 19.3644H17.599C18.2128 19.3644 18.7105 18.8667 18.7105 18.2529V9.36047H3.28906V18.2529C3.28906 18.8667 3.78681 19.3644 4.40061 19.3644Z"
              fill="#D0D5DA"/>
        <path d="M13.9237 9.36047H8.07666V19.3644H13.9237V9.36047Z" fill="#D0D5DA"/>
        <path d="M10.1157 16.1646H11.8845C12.2794 16.1646 12.6 16.4852 12.6 16.8801V19.3645H9.40015V16.8801C9.40015 16.4852 9.7208 16.1646 10.1157 16.1646Z"
              fill="#6B7683"/>
        <path fill-rule="evenodd" clip-rule="evenodd"
              d="M18.8666 2.63562H3.2664C2.67735 2.63562 2.19995 3.11302 2.19995 3.70207V9.56892C2.19995 10.158 2.67735 10.6354 3.2664 10.6354H18.733C19.322 10.6354 19.7994 10.158 19.7994 9.56892V3.56897C19.7994 3.05362 19.3814 2.63562 18.8661 2.63562H18.8666Z"
              fill="#2F81F9"/>
        <path d="M7.97495 5.53516H2.19995V7.73516H7.97495V5.53516Z" fill="#93C9FF"/>
        <path d="M19.7999 5.53516H14.0249V7.73516H19.7999V5.53516Z" fill="#93C9FF"/>
        <path d="M9.9001 8.28523H12.1001C12.4037 8.28523 12.6501 8.03883 12.6501 7.73523V5.53523C12.6501 5.23163 12.4037 4.98523 12.1001 4.98523H9.9001C9.5965 4.98523 9.3501 5.23163 9.3501 5.53523V7.73523C9.3501 8.03883 9.5965 8.28523 9.9001 8.28523Z"
              fill="white"/>
    </g>
    <defs>
        <clipPath id="clip0_1663_861">
            <rect width="22" height="22" fill="white"/>
        </clipPath>
    </defs>
</svg>
