<svg width="22" height="22" viewBox="0 0 22 22" fill="none" xmlns="http://www.w3.org/2000/svg">
    <g clip-path="url(#clip0_1663_923)">
        <path d="M11 20.5749C16.2881 20.5749 20.5749 16.2881 20.5749 11C20.5749 5.7119 16.2881 1.42505 11 1.42505C5.7119 1.42505 1.42505 5.7119 1.42505 11C1.42505 16.2881 5.7119 20.5749 11 20.5749Z"
              fill="#FFC84D"/>
        <path d="M11 17.4872C11.6236 17.4872 12.1291 16.9817 12.1291 16.3581C12.1291 15.7345 11.6236 15.2289 11 15.2289C10.3764 15.2289 9.87085 15.7345 9.87085 16.3581C9.87085 16.9817 10.3764 17.4872 11 17.4872Z"
              fill="#FF6D00"/>
        <path d="M14.746 9.19598H12.2864C12.0741 9.19598 11.8811 9.07388 11.7898 8.88193C11.6985 8.68998 11.726 8.46283 11.8602 8.29838L13.1939 6.66213H12.2204C11.9163 6.66213 11.6704 6.41573 11.6704 6.11213C11.6704 5.80853 11.9163 5.56213 12.2204 5.56213H14.3517C14.564 5.56213 14.757 5.68423 14.8483 5.87618C14.9396 6.06813 14.9121 6.29528 14.7779 6.45973L13.4442 8.09598H14.7455C15.0496 8.09598 15.2955 8.34238 15.2955 8.64598C15.2955 8.94958 15.0496 9.19598 14.7455 9.19598H14.746Z"
              fill="#6391FF"/>
        <path d="M19.3619 7.849H16.0404C15.8281 7.849 15.6351 7.7269 15.5438 7.53495C15.4525 7.343 15.48 7.11585 15.6142 6.9514L17.6712 4.42745H15.9519C15.6477 4.42745 15.4019 4.18105 15.4019 3.87745C15.4019 3.57385 15.6477 3.32745 15.9519 3.32745H18.8289C19.0412 3.32745 19.2343 3.44955 19.3256 3.6415C19.4169 3.83345 19.3888 4.0606 19.2552 4.22505L17.1982 6.749H19.3619C19.666 6.749 19.9119 6.9954 19.9119 7.299C19.9119 7.6026 19.666 7.849 19.3619 7.849Z"
              fill="#6391FF"/>
        <path d="M6.70676 11.8382C6.57091 11.7711 6.41471 11.8888 6.44496 12.0373C6.61271 12.8617 7.32221 13.481 8.17196 13.481C9.02171 13.481 9.73121 12.8617 9.89896 12.0373C9.92921 11.8888 9.77301 11.7711 9.63716 11.8382C9.34071 11.9845 8.83581 12.1687 8.17196 12.1687C7.50811 12.1687 7.00321 11.9845 6.70676 11.8382Z"
              fill="black"/>
        <path d="M15.2934 11.8382C15.4293 11.7711 15.5855 11.8888 15.5552 12.0373C15.3875 12.8617 14.678 13.481 13.8282 13.481C12.9785 13.481 12.269 12.8617 12.1012 12.0373C12.071 11.8888 12.2272 11.7711 12.363 11.8382C12.6595 11.9845 13.1644 12.1687 13.8282 12.1687C14.4915 12.1687 14.997 11.9845 15.2934 11.8382Z"
              fill="black"/>
    </g>
    <defs>
        <clipPath id="clip0_1663_923">
            <rect width="22" height="22" fill="white"/>
        </clipPath>
    </defs>
</svg>
