<svg width="22" height="22" viewBox="0 0 22 22" fill="none" xmlns="http://www.w3.org/2000/svg">
    <g clip-path="url(#clip0_1698_699)">
        <path d="M17.8162 4.59906H4.18386C3.60471 4.59906 3.13501 5.06876 3.13501 5.64791V19.4161C3.13501 20.0409 3.64156 20.5474 4.26636 20.5474H17.7342C18.359 20.5474 18.8656 20.0409 18.8656 19.4161V5.64736C18.8656 5.06821 18.3959 4.59851 17.8167 4.59851L17.8162 4.59906Z"
              fill="#D0D5DA"/>
        <path d="M8.11627 14.6905C8.11627 14.8351 7.99912 14.9528 7.85392 14.9528H6.80507C6.66042 14.9528 6.54272 14.8357 6.54272 14.6905V13.6416C6.54272 13.497 6.65987 13.3793 6.80507 13.3793H7.85392C7.99857 13.3793 8.11627 13.4964 8.11627 13.6416V14.6905ZM8.11627 11.0203C8.11627 11.165 7.99912 11.2827 7.85392 11.2827H6.80507C6.66042 11.2827 6.54272 11.1655 6.54272 11.0203V9.97146C6.54272 9.82681 6.65987 9.70911 6.80507 9.70911H7.85392C7.99857 9.70911 8.11627 9.82626 8.11627 9.97146V11.0203ZM11.7864 14.6905C11.7864 14.8351 11.6693 14.9528 11.5241 14.9528H10.4752C10.3306 14.9528 10.2129 14.8357 10.2129 14.6905V13.6416C10.2129 13.497 10.33 13.3793 10.4752 13.3793H11.5241C11.6687 13.3793 11.7864 13.4964 11.7864 13.6416V14.6905ZM11.7864 11.0203C11.7864 11.165 11.6693 11.2827 11.5241 11.2827H10.4752C10.3306 11.2827 10.2129 11.1655 10.2129 11.0203V9.97146C10.2129 9.82681 10.33 9.70911 10.4752 9.70911H11.5241C11.6687 9.70911 11.7864 9.82626 11.7864 9.97146V11.0203ZM15.4566 14.6905C15.4566 14.8351 15.3394 14.9528 15.1942 14.9528H14.1454C14.0007 14.9528 13.883 14.8357 13.883 14.6905V13.6416C13.883 13.497 14.0002 13.3793 14.1454 13.3793H15.1942C15.3389 13.3793 15.4566 13.4964 15.4566 13.6416V14.6905ZM15.4566 11.0203C15.4566 11.165 15.3394 11.2827 15.1942 11.2827H14.1454C14.0007 11.2827 13.883 11.1655 13.883 11.0203V9.97146C13.883 9.82681 14.0002 9.70911 14.1454 9.70911H15.1942C15.3389 9.70911 15.4566 9.82626 15.4566 9.97146V11.0203Z"
              fill="#8A94A0"/>
        <path d="M10.2652 17.7194H11.7348C12.1099 17.7194 12.414 18.0235 12.414 18.3986V20.5475H9.58594V18.3986C9.58594 18.0235 9.89009 17.7194 10.2652 17.7194Z"
              fill="#6B7683"/>
        <path d="M13.2259 1.45312H8.77415C8.26597 1.45312 7.854 1.86509 7.854 2.37328V6.82498C7.854 7.33316 8.26597 7.74512 8.77415 7.74512H13.2259C13.734 7.74512 14.146 7.33316 14.146 6.82498V2.37328C14.146 1.86509 13.734 1.45312 13.2259 1.45312Z"
              fill="#EF4452"/>
        <path d="M12.573 3.98745H11.6116V2.90615C11.6116 2.7615 11.4944 2.6438 11.3492 2.6438H10.6502C10.5055 2.6438 10.3878 2.76095 10.3878 2.90615V3.98745H9.42641C9.28176 3.98745 9.16406 4.1046 9.16406 4.2498V4.94885C9.16406 5.0935 9.28121 5.2112 9.42641 5.2112H10.3878V6.2925C10.3878 6.43715 10.505 6.55485 10.6502 6.55485H11.3492C11.4939 6.55485 11.6116 6.4377 11.6116 6.2925V5.2112H12.573C12.7176 5.2112 12.8353 5.09405 12.8353 4.94885V4.2498C12.8353 4.10515 12.7182 3.98745 12.573 3.98745Z"
              fill="white"/>
    </g>
    <defs>
        <clipPath id="clip0_1698_699">
            <rect width="22" height="22" fill="white"/>
        </clipPath>
    </defs>
</svg>
