<svg width="22" height="22" viewBox="0 0 22 22" fill="none" xmlns="http://www.w3.org/2000/svg">
    <g clip-path="url(#clip0_1663_896)">
        <path d="M11.6573 18.9475C11.9064 18.9475 12.1396 18.8457 12.3305 18.6857C13.1197 18.024 14.1202 17.6577 15.158 17.6577H19.5338C20.1108 17.6577 20.5788 17.1897 20.5788 16.6127V5.14246H1.42065V16.6127C1.42065 17.1897 1.8887 17.6577 2.46565 17.6577H6.84145C7.8793 17.6577 8.87975 18.0246 9.669 18.6857C9.85985 18.8457 10.0931 18.9475 10.3422 18.9475H11.6573Z"
              fill="#007FF2"/>
        <path d="M11 17.9025C11.8256 17.0769 12.9454 16.6127 14.113 16.6127H19.5338C20.1107 16.6127 20.5788 16.1447 20.5788 15.5677V4.09749C20.5788 3.52054 20.1107 3.05249 19.5338 3.05249H14.113C12.9454 3.05249 11.8256 3.51614 11 4.34224"
              fill="#C0C7D1"/>
        <path d="M11 17.9025C10.1745 17.0769 9.05465 16.6127 7.887 16.6127H2.46565C1.8887 16.6127 1.42065 16.1447 1.42065 15.5677V4.09749C1.42065 3.52054 1.8887 3.05249 2.46565 3.05249H7.88645C9.0541 3.05249 10.1739 3.51614 10.9995 4.34224"
              fill="#E5E8EB"/>
    </g>
    <defs>
        <clipPath id="clip0_1663_896">
            <rect width="22" height="22" fill="white"/>
        </clipPath>
    </defs>
</svg>
