<svg width="22" height="22" viewBox="0 0 22 22" fill="none" xmlns="http://www.w3.org/2000/svg">
    <g clip-path="url(#clip0_1663_1028)">
        <path d="M19.5085 11.286C19.5085 11.6325 19.448 11.968 19.3325 12.2925L19.151 12.6995C19.1455 12.7105 19.14 12.716 19.1345 12.727C19.096 12.7985 19.052 12.87 19.008 12.9415C18.9805 12.9855 18.953 13.035 18.92 13.0845C18.8485 13.1835 18.777 13.2825 18.6945 13.3815C18.6835 13.398 18.6725 13.409 18.6615 13.42C18.568 13.53 18.4745 13.64 18.37 13.7445C18.282 13.827 18.183 13.9095 18.0895 13.992C18.1445 13.7775 18.183 13.563 18.183 13.343C18.183 12.001 17.083 10.813 15.3835 10.0485L15.9005 8.21701C15.928 8.11801 15.9005 8.01901 15.8455 7.93101L16.346 7.45251C17.237 7.87601 17.9795 8.39301 18.524 8.98701C19.151 9.67451 19.5085 10.4555 19.5085 11.286Z"
              fill="#3D3D3D"/>
        <path d="M13.9315 6.66591L10.0265 7.47441C8.61295 7.71641 7.43596 8.65691 6.87496 9.93841C5.02696 10.6919 3.81695 11.9349 3.81695 13.3429C3.81695 13.5629 3.85546 13.7774 3.91046 13.9919C3.81696 13.9094 3.71796 13.8269 3.63546 13.7444C3.40996 13.5189 3.22295 13.2769 3.05795 13.0294L3.07995 13.0789C2.92045 12.8424 2.79396 12.6059 2.69496 12.3529C2.69496 12.3474 2.68946 12.3419 2.68396 12.3309C2.62346 12.1714 2.57946 12.0064 2.54646 11.8359C2.54646 11.8322 2.54462 11.8286 2.54095 11.8249C2.50795 11.6489 2.49146 11.4674 2.49146 11.2859C2.49146 10.4554 2.84896 9.67441 3.47596 8.98691C4.90596 7.42491 7.73295 6.35791 11 6.35791C12.034 6.35791 13.0185 6.47341 13.9315 6.66591Z"
              fill="#3D3D3D"/>
        <path d="M18.1842 13.3435C18.1842 12.002 17.0837 10.8118 15.3814 10.0506L14.9189 11.6759C14.9156 11.8959 14.8358 12.0933 14.6961 12.2699C14.827 12.2374 14.9618 12.216 15.102 12.216C15.8165 12.216 16.4281 12.6571 16.6789 13.2824C16.7999 13.5844 16.5837 13.9149 16.2581 13.9149H13.9448C13.6198 13.9149 13.4031 13.5844 13.5241 13.2824C13.5802 13.1433 13.6561 13.0151 13.7452 12.8969C11.4319 13.8121 6.50059 13.3231 6.52864 11.545C6.53744 10.9741 6.66119 10.4318 6.87569 9.93896C5.02659 10.6919 3.81494 11.9349 3.81494 13.3435C3.81494 13.5646 3.85344 13.7796 3.91064 13.9908C4.00084 14.0711 4.08279 14.1547 4.18124 14.2312C4.18619 14.235 4.19059 14.2394 4.19554 14.2433C4.40124 14.4022 4.62619 14.5518 4.86269 14.6948C4.93474 14.7383 5.01339 14.7784 5.08819 14.8202C5.25374 14.9132 5.42369 15.0034 5.60189 15.0886C5.70639 15.1387 5.81364 15.186 5.92199 15.2327C7.33989 15.8471 9.09164 16.2167 10.999 16.2167C12.918 16.2167 14.6807 15.8432 16.1025 15.2217C16.1883 15.1843 16.2746 15.1475 16.3582 15.1079C16.6101 14.9891 16.8549 14.8648 17.0815 14.73C17.0886 14.7256 17.0952 14.7207 17.1024 14.7168C17.3301 14.5804 17.5413 14.4352 17.7409 14.2851C17.786 14.251 17.8289 14.2163 17.8724 14.1817C17.9494 14.1201 18.0154 14.0541 18.088 13.9903C18.1452 13.7785 18.1837 13.5635 18.1837 13.3429L18.1842 13.3435ZM7.10889 13.7901H5.54964C5.31534 13.7901 5.13824 13.5541 5.22734 13.3374C5.40554 12.904 5.83179 12.5988 6.32954 12.5988C6.82729 12.5988 7.25354 12.904 7.43174 13.3374C7.52084 13.5541 7.34319 13.7901 7.10889 13.7901ZM9.76649 15.3339C9.53219 15.3339 9.35509 15.098 9.44419 14.8813C9.62239 14.4479 10.0486 14.1426 10.5464 14.1426C11.0441 14.1426 11.4704 14.4479 11.6486 14.8813C11.7377 15.098 11.5606 15.3339 11.3263 15.3339H9.76649Z"
              fill="#FFC450"/>
        <path d="M11.6485 14.8809C11.4703 14.4475 11.0441 14.1422 10.5463 14.1422C10.0486 14.1422 9.62231 14.4475 9.44411 14.8809C9.35501 15.0976 9.53211 15.3335 9.76641 15.3335H11.3257C11.56 15.3335 11.7371 15.0976 11.648 14.8809H11.6485Z"
              fill="#FFE3A0"/>
        <path d="M6.32952 12.5983C5.83177 12.5983 5.40552 12.9035 5.22732 13.3369C5.13822 13.5536 5.31532 13.7896 5.54962 13.7896H7.10887C7.34317 13.7896 7.52027 13.5536 7.43117 13.3369C7.25297 12.9035 6.82672 12.5983 6.32897 12.5983H6.32952Z"
              fill="#036D50"/>
        <path d="M18.5626 6.37445C18.5516 6.85845 18.1501 7.24345 17.6661 7.23245L17.1106 7.22145L16.5991 7.21045L16.3461 7.45245L15.8456 7.93095C15.8346 7.91445 15.8291 7.89245 15.8126 7.87595L14.6741 6.68795C14.6631 6.67695 14.6466 6.67145 14.6301 6.66045L15.3836 5.93995L15.3946 5.42295L15.4056 4.87845C15.4166 4.38895 15.8181 4.00945 16.3021 4.01495C16.7916 4.02595 17.1711 4.42745 17.1656 4.91695L17.1491 5.46145L17.7046 5.47795C18.1886 5.48895 18.5736 5.89045 18.5626 6.37445Z"
              fill="#D5D5D5"/>
        <path d="M15.9004 8.21695L15.3834 10.0484L14.9214 11.6764C14.9159 11.8964 14.8389 12.0944 14.6959 12.2704C14.3109 12.3639 13.9754 12.5894 13.7444 12.8974C11.4344 13.8104 6.50093 13.3209 6.52843 11.5444C6.53943 10.9724 6.66043 10.4334 6.87493 9.93845C7.43593 8.65695 8.61293 7.71645 10.0264 7.47445L13.9314 6.66595L14.3329 6.58345C14.4429 6.56145 14.5474 6.59445 14.6299 6.66045C14.6464 6.67145 14.6629 6.67695 14.6739 6.68795L15.8124 7.87595C15.8289 7.89245 15.8344 7.91445 15.8454 7.93095C15.9004 8.01895 15.9279 8.11795 15.9004 8.21695Z"
              fill="#F77F00"/>
        <path d="M13.7466 12.897C13.6575 13.0152 13.5816 13.1434 13.5255 13.2825C13.4045 13.5845 13.6206 13.915 13.9462 13.915H16.2595C16.5846 13.915 16.8013 13.5845 16.6803 13.2825C16.4295 12.6577 15.8179 12.2161 15.1034 12.2161C14.9626 12.2161 14.8279 12.2375 14.6975 12.27C14.312 12.3651 13.9787 12.589 13.7477 12.897H13.7466Z"
              fill="#C50010"/>
        <path d="M19.1504 8.98865H18.5234C19.1504 9.6756 19.509 10.4571 19.509 11.2882C19.509 11.6325 19.4474 11.968 19.3314 12.2919C19.2819 12.4305 19.2197 12.5669 19.1499 12.7006C19.1372 12.7253 19.1268 12.7501 19.113 12.7743L18.7456 13.5877H19.1504C20.4204 13.5877 21.45 12.5581 21.45 11.2882C21.45 10.0182 20.4204 8.98865 19.1504 8.98865Z"
              fill="#4E5968"/>
        <path d="M2.6967 12.3553C2.6934 12.3476 2.689 12.3393 2.68625 12.3316C2.62575 12.1694 2.57845 12.0038 2.54655 11.8355L2.54105 11.8234H2.54325V11.8251C2.51025 11.6485 2.491 11.4698 2.491 11.2888C2.491 10.4578 2.8496 9.67621 3.4766 8.98926H2.8496C1.57965 8.98926 0.550049 10.0189 0.550049 11.2888C0.550049 12.5588 1.57965 13.5884 2.8496 13.5884H3.2962L3.0773 13.0774C2.92055 12.8448 2.79075 12.6039 2.69615 12.3558L2.6967 12.3553Z"
              fill="#4E5968"/>
        <path d="M19.1357 12.7249C19.0972 12.7975 19.0532 12.8684 19.0092 12.9394C18.979 12.9878 18.9509 13.0362 18.9179 13.0835C18.8486 13.1847 18.7744 13.2842 18.6941 13.3821C18.6831 13.3953 18.6721 13.4085 18.6611 13.4217C18.5692 13.5312 18.4719 13.639 18.3674 13.7435C18.2821 13.8293 18.1826 13.909 18.0885 13.991C18.0159 14.0542 17.9499 14.1208 17.8729 14.1824C17.8295 14.217 17.7866 14.2517 17.7415 14.2858C17.5418 14.4365 17.3306 14.5817 17.1029 14.7175C17.0958 14.7219 17.0892 14.7269 17.082 14.7307C16.8554 14.8655 16.6107 14.9892 16.3588 15.1086C16.2752 15.1482 16.1888 15.185 16.103 15.2224C14.6807 15.8439 12.9185 16.2174 10.9996 16.2174C9.09216 16.2174 7.34041 15.8478 5.92251 15.2334C5.81416 15.1867 5.70691 15.1388 5.60241 15.0893C5.42421 15.0041 5.25426 14.9139 5.08871 14.8209C5.01391 14.7791 4.93526 14.739 4.86321 14.6955C4.62671 14.5525 4.40176 14.4029 4.19606 14.244C4.19111 14.2401 4.18671 14.2357 4.18176 14.2319C4.08331 14.1554 4.00136 14.0718 3.91116 13.9915C3.81821 13.909 3.71756 13.8298 3.63286 13.7446C3.40736 13.5185 3.22091 13.2782 3.05811 13.0318L3.07736 13.0774L3.29626 13.5884L4.04316 15.3341H4.05306C4.60141 17.4549 7.18586 19.0834 11.0001 19.0834C14.8144 19.0834 17.3988 17.4554 17.9472 15.3341H17.9565L18.7458 13.5884L19.1132 12.7749L19.1357 12.7249Z"
              fill="#4E5968"/>
        <path d="M11.462 3.17352C11.3025 4.09752 10.428 4.71902 9.50955 4.55952C9.38305 4.53752 9.26205 4.49902 9.14655 4.44952C8.82755 4.82352 8.33255 5.02702 7.81555 4.93352C7.04005 4.80152 6.51755 4.05352 6.64955 3.27252C6.78155 2.49152 7.52405 1.96352 8.30505 2.10102H8.31055C8.64055 1.46852 9.34455 1.08902 10.087 1.21552C11.0055 1.37502 11.6215 2.24952 11.462 3.17352Z"
              fill="#D5D5D5"/>
        <path d="M13.0581 4.90159C13.7285 4.90159 14.2719 4.35599 14.2719 3.68224C14.2719 3.00849 13.7285 2.46289 13.0581 2.46289C12.3876 2.46289 11.8442 3.00849 11.8442 3.68224C11.8442 4.35599 12.3876 4.90159 13.0581 4.90159Z"
              fill="#D5D5D5"/>
    </g>
    <defs>
        <clipPath id="clip0_1663_1028">
            <rect width="22" height="22" fill="white"/>
        </clipPath>
    </defs>
</svg>
