<svg width="22" height="22" viewBox="0 0 22 22" fill="none" xmlns="http://www.w3.org/2000/svg">
    <g clip-path="url(#clip0_1663_1134)">
        <path fill-rule="evenodd" clip-rule="evenodd"
              d="M18.0582 14.619C18.0582 16.6358 14.9413 18.5608 11 18.5608C7.05874 18.5608 3.94189 16.544 3.94189 14.619V9.57714L11 7.46899L18.0582 9.48584V14.619Z"
              fill="#4E5968"/>
        <path fill-rule="evenodd" clip-rule="evenodd"
              d="M0.916934 7.28584L10.0832 1.96899C10.6332 1.60214 11.3664 1.60214 11.9164 1.96899L21.0832 7.28584C21.7251 7.65269 21.7251 8.47769 21.0832 8.84399L11.9164 14.1608C11.3664 14.5277 10.6332 14.5277 10.0832 14.1608L0.916934 8.84399C0.275084 8.47714 0.275084 7.65213 0.916934 7.28584Z"
              fill="#6B7683"/>
        <path fill-rule="evenodd" clip-rule="evenodd"
              d="M11.2751 7.56084L10.2669 6.73584L3.8501 10.769V18.469C3.8501 18.8358 4.1251 19.1108 4.49195 19.1108C4.8588 19.1108 5.1338 18.8358 5.1338 18.469V11.4108L11.2751 7.56084Z"
              fill="#FFC100"/>
        <path fill-rule="evenodd" clip-rule="evenodd"
              d="M12.4669 7.01087C12.4669 7.56087 11.8251 8.01902 11.0001 8.01902C10.1751 8.01902 9.5332 7.56087 9.5332 7.01087C9.5332 6.46087 10.1751 6.00272 11.0001 6.00272C11.8251 5.91087 12.4669 6.46087 12.4669 7.01087Z"
              fill="#303D4C"/>
        <path fill-rule="evenodd" clip-rule="evenodd"
              d="M4.5832 16.544C3.85005 16.544 3.30005 17.094 3.30005 17.7359V19.64C3.30005 19.9254 3.87095 20.3066 4.53755 20.3066C5.20415 20.3066 5.77505 20.0211 5.77505 19.64V17.7359C5.77505 17.094 5.3169 16.544 4.5832 16.544Z"
              fill="#FFDA16"/>
    </g>
    <defs>
        <clipPath id="clip0_1663_1134">
            <rect width="22" height="22" fill="white"/>
        </clipPath>
    </defs>
</svg>
