<svg width="24" height="24" viewBox="0 0 24 24" fill="#AFAFAF" xmlns="http://www.w3.org/2000/svg">
    <path fill-rule="evenodd" clip-rule="evenodd"
          d="M15.3752 3.90006C15.7202 3.90006 16.0652 4.03506 16.3352 4.29006C16.5871 4.54306 16.7285 4.88554 16.7285 5.24256C16.7285 5.59958 16.5871 5.94206 16.3352 6.19506L10.5302 12.0001L16.3352 17.7901C16.5871 18.0431 16.7285 18.3855 16.7285 18.7426C16.7285 19.0996 16.5871 19.4421 16.3352 19.6951C16.0822 19.947 15.7397 20.0884 15.3827 20.0884C15.0257 20.0884 14.6832 19.947 14.4302 19.6951L7.6802 12.9451C7.4283 12.6921 7.28688 12.3496 7.28688 11.9926C7.28688 11.6355 7.4283 11.2931 7.6802 11.0401L14.4302 4.29006C14.6852 4.03506 15.0302 3.90006 15.3752 3.90006Z"
    />
</svg>
