<svg width="26" height="26" viewBox="0 0 26 26" fill="currentColor" xmlns="http://www.w3.org/2000/svg">
    <path d="M23.5594 8.06289C24.1453 7.47695 24.1453 6.52539 23.5594 5.93945L19.0594 1.43945C18.4734 0.853516 17.5219 0.853516 16.9359 1.43945C16.35 2.02539 16.35 2.97695 16.9359 3.56289L18.8766 5.50352H4.5C3.67031 5.50352 3 6.17383 3 7.00352C3 7.8332 3.67031 8.50352 4.5 8.50352H18.8766L16.9359 10.4441C16.35 11.0301 16.35 11.9816 16.9359 12.5676C17.5219 13.1535 18.4734 13.1535 19.0594 12.5676L23.5594 8.06758V8.06289ZM7.93594 24.5629C8.52188 25.1488 9.47344 25.1488 10.0594 24.5629C10.6453 23.977 10.6453 23.0254 10.0594 22.4395L8.12344 20.5035H22.5C23.3297 20.5035 24 19.8332 24 19.0035C24 18.1738 23.3297 17.5035 22.5 17.5035H8.12344L10.0641 15.5629C10.65 14.977 10.65 14.0254 10.0641 13.4395C9.47812 12.8535 8.52656 12.8535 7.94063 13.4395L3.44062 17.9395C2.85469 18.5254 2.85469 19.477 3.44062 20.0629L7.94063 24.5629H7.93594Z"/>
</svg>
