<svg xmlns="http://www.w3.org/2000/svg" width="20" height="20" viewBox="0 0 20 20" fill="#AFAFAF">
    <path fill-rule="evenodd" clip-rule="evenodd"
          d="M7.18758 16.75C6.90008 16.75 6.61258 16.6375 6.38758 16.425C6.17767 16.2142 6.05981 15.9288 6.05981 15.6313C6.05981 15.3337 6.17767 15.0483 6.38758 14.8375L11.2251 10L6.38758 5.175C6.17767 4.96416 6.05981 4.67876 6.05981 4.38125C6.05981 4.08373 6.17767 3.79833 6.38758 3.5875C6.59841 3.37759 6.88381 3.25974 7.18133 3.25974C7.47884 3.25974 7.76424 3.37759 7.97508 3.5875L13.6001 9.2125C13.81 9.42333 13.9278 9.70873 13.9278 10.0062C13.9278 10.3038 13.81 10.5892 13.6001 10.8L7.97508 16.425C7.76258 16.6375 7.47508 16.75 7.18758 16.75Z"/>
</svg>
