<svg width="24" height="24" viewBox="0 0 24 24" xmlns="http://www.w3.org/2000/svg">
    <g clip-path="url(#clip0_68_494)">
        <path d="M12.8381 2.52148C12.3576 2.04102 11.5773 2.04102 11.0968 2.52148L6.17684 7.44148C5.69637 7.92195 5.69637 8.70223 6.17684 9.1827C6.65731 9.66317 7.43759 9.66317 7.91806 9.1827L10.7394 6.36139V14.4602C10.7394 15.1405 11.289 15.6902 11.9694 15.6902C12.6497 15.6902 13.1994 15.1405 13.1994 14.4602V6.36139L16.0207 9.1827C16.5012 9.66317 17.2814 9.66317 17.7619 9.1827C18.2424 8.70223 18.2424 7.92195 17.7619 7.44148L12.8419 2.52148H12.8381ZM5.81937 15.6902C5.81937 15.0098 5.26972 14.4602 4.58937 14.4602C3.90903 14.4602 3.35938 15.0098 3.35938 15.6902V18.1502C3.35938 20.1874 5.01219 21.8402 7.04937 21.8402H16.8894C18.9266 21.8402 20.5794 20.1874 20.5794 18.1502V15.6902C20.5794 15.0098 20.0297 14.4602 19.3494 14.4602C18.669 14.4602 18.1194 15.0098 18.1194 15.6902V18.1502C18.1194 18.8305 17.5697 19.3802 16.8894 19.3802H7.04937C6.36903 19.3802 5.81937 18.8305 5.81937 18.1502V15.6902Z" fill=""/>
    </g>
    <defs>
        <clipPath id="clip0_68_494">
            <rect width="17.22" height="19.68" fill="none" transform="translate(3.35938 2.16016)"/>
        </clipPath>
    </defs>
</svg>
