<svg width="26" height="26" viewBox="4 4 18 18" fill="none" xmlns="http://www.w3.org/2000/svg">
<path d="M12.875 4C12.2527 4 11.75 4.50273 11.75 5.125V5.2375C9.18359 5.75781 7.25 8.02891 7.25 10.75V11.5129C7.25 13.2039 6.67344 14.8457 5.61875 16.1676L5.27422 16.5965C5.09492 16.818 5 17.0922 5 17.377C5 18.066 5.55898 18.625 6.24805 18.625H19.4984C20.1875 18.625 20.7465 18.066 20.7465 17.377C20.7465 17.0922 20.6516 16.818 20.4723 16.5965L20.1277 16.1676C19.0766 14.8457 18.5 13.2039 18.5 11.5129V10.75C18.5 8.02891 16.5664 5.75781 14 5.2375V5.125C14 4.50273 13.4973 4 12.875 4ZM10.6953 20.3125C10.9449 21.2828 11.8273 22 12.875 22C13.9227 22 14.8051 21.2828 15.0547 20.3125H10.6953Z" fill=""/>
</svg>
