<svg width="26" height="26" viewBox="0 0 26 26" fill="none" xmlns="http://www.w3.org/2000/svg">
    <g clip-path="url(#clip0_1599_676)">
        <path d="M9.4249 23.0458L2.752 21.1322C2.47055 21.0516 2.2749 20.7779 2.2749 20.4653V5.75253C2.2749 5.29883 2.6753 4.96863 3.0835 5.08563L9.4249 6.90433V23.0458Z"
              fill="#D0D5DC"/>
        <path d="M9.4248 23.0457L16.5748 20.9956V4.85352L9.4248 6.90427V23.0457Z" fill="#E1E4E7"/>
        <path d="M22.9166 22.8137L16.5752 20.995V4.85352L23.2481 6.76712C23.5295 6.84772 23.7252 7.12137 23.7252 7.43402V22.1468C23.7252 22.6005 23.3248 22.9307 22.9166 22.8137Z"
              fill="#D0D5DC"/>
        <path d="M17.043 12.6568C17.6508 12.0146 18.7506 10.8602 19.7256 9.8807C21.5833 8.01325 21.71 4.8263 19.8296 2.98225C18.9261 2.0963 17.7509 1.65365 16.575 1.6543C15.3998 1.6543 14.2246 2.0963 13.3211 2.98225C11.4394 4.82695 11.5668 8.0139 13.4251 9.88135C14.4001 10.8609 15.5019 12.0153 16.1096 12.6575C16.3631 12.9253 16.7889 12.9246 17.0424 12.6575L17.043 12.6568Z"
              fill="#4582ED"/>
        <path d="M16.5758 7.68177C17.3379 7.68177 17.9557 7.06395 17.9557 6.30182C17.9557 5.5397 17.3379 4.92188 16.5758 4.92188C15.8136 4.92188 15.1958 5.5397 15.1958 6.30182C15.1958 7.06395 15.8136 7.68177 16.5758 7.68177Z"
              fill="#FBFBFB"/>
    </g>
    <defs>
        <clipPath id="clip0_1599_676">
            <rect width="26" height="26" fill="white"/>
        </clipPath>
    </defs>
</svg>
