<svg width="28" height="28" viewBox="0 0 28 28" fill="none" xmlns="http://www.w3.org/2000/svg">
    <g clip-path="url(#clip0_56_483)">
        <path d="M3.88388 6.7742C3.88388 4.38066 5.82582 2.43872 8.21936 2.43872H12.5548V11.051C12.5548 11.6561 13.2548 11.9948 13.729 11.6155L16.1678 9.66453L18.6065 11.6155C19.0807 11.9948 19.7807 11.6561 19.7807 11.051V2.43872H21.2258H22.671C23.4703 2.43872 24.1161 3.08453 24.1161 3.88388V18.3355C24.1161 19.1349 23.4703 19.7807 22.671 19.7807V22.671C23.4703 22.671 24.1161 23.3168 24.1161 24.1161C24.1161 24.9155 23.4703 25.5613 22.671 25.5613H21.2258H8.21936C5.82582 25.5613 3.88388 23.6194 3.88388 21.2258V6.7742ZM6.7742 21.2258C6.7742 22.0252 7.42001 22.671 8.21936 22.671H19.7807V19.7807H8.21936C7.42001 19.7807 6.7742 20.4265 6.7742 21.2258Z"/>
    </g>
    <defs>
        <clipPath id="clip0_56_483">
            <rect width="20.2323" height="23.1226" fill="white" transform="translate(3.88388 2.43872)"/>
        </clipPath>
    </defs>
</svg>
