<svg width="24" height="24" viewBox="0 0 24 24" fill="none" xmlns="http://www.w3.org/2000/svg">
    <path d="M15.4756 13.8682C15.4756 14.0732 15.4574 14.2715 15.4209 14.4629C15.3845 14.6543 15.3298 14.8366 15.2569 15.0098H8.26367C8.19075 14.8366 8.13607 14.6543 8.09961 14.4629C8.06315 14.2715 8.04492 14.0732 8.04492 13.8682C8.04492 13.3623 8.14062 12.8838 8.33203 12.4326C8.52799 11.9814 8.79687 11.585 9.13867 11.2432C9.48047 10.9014 9.87467 10.6348 10.3213 10.4434C10.7679 10.2474 11.2487 10.1494 11.7637 10.1494C12.2741 10.1494 12.7526 10.2474 13.1992 10.4434C13.6459 10.6348 14.0401 10.9014 14.3819 11.2432C14.7237 11.585 14.9903 11.9814 15.1817 12.4326C15.3776 12.8838 15.4756 13.3623 15.4756 13.8682ZM4.56543 14.2031C4.36946 14.2031 4.2054 14.1416 4.07324 14.0186C3.94108 13.891 3.875 13.7383 3.875 13.5605C3.875 13.3828 3.94108 13.2324 4.07324 13.1094C4.2054 12.9818 4.36946 12.918 4.56543 12.918H6.07617C6.27213 12.918 6.43392 12.9818 6.56152 13.1094C6.69368 13.2324 6.76204 13.3828 6.7666 13.5605C6.7666 13.7383 6.70052 13.891 6.56836 14.0186C6.4362 14.1462 6.27213 14.21 6.07617 14.21L4.56543 14.2031ZM7.27929 10.3203L6.21289 9.25391C6.07161 9.11263 5.9987 8.95085 5.99414 8.76856C5.99414 8.58626 6.05794 8.4336 6.18555 8.31055C6.31315 8.1875 6.46582 8.12826 6.64355 8.13281C6.82584 8.13281 6.98763 8.20117 7.1289 8.33789L8.19531 9.4043C8.33659 9.54557 8.40722 9.70736 8.40722 9.88965C8.41178 10.0719 8.35254 10.2269 8.22949 10.3545C8.10644 10.4821 7.9515 10.5436 7.76465 10.5391C7.5778 10.53 7.41601 10.457 7.27929 10.3203ZM15.291 10.3545C15.1634 10.2314 15.1019 10.0788 15.1065 9.89649C15.111 9.70964 15.1839 9.54557 15.3252 9.4043L16.3916 8.33789C16.5329 8.20117 16.6947 8.13054 16.877 8.12598C17.0593 8.12142 17.2119 8.18294 17.335 8.31055C17.4626 8.43815 17.5241 8.5931 17.5196 8.77539C17.5196 8.95313 17.4489 9.11263 17.3076 9.25391L16.2412 10.3203C16.1045 10.457 15.9427 10.5277 15.7559 10.5322C15.5736 10.5368 15.4186 10.4775 15.291 10.3545ZM17.4444 14.2031C17.253 14.2031 17.0912 14.1416 16.959 14.0186C16.8269 13.891 16.7585 13.7383 16.7539 13.5605C16.7539 13.3828 16.82 13.2324 16.9522 13.1094C17.0889 12.9818 17.253 12.918 17.4444 12.918H18.9551C19.1556 12.918 19.3197 12.9818 19.4473 13.1094C19.5795 13.2324 19.6455 13.3828 19.6455 13.5605C19.6455 13.7383 19.5795 13.891 19.4473 14.0186C19.3197 14.1416 19.1556 14.2031 18.9551 14.2031H17.4444ZM11.7637 8.8916C11.586 8.8916 11.4333 8.82552 11.3057 8.69336C11.1781 8.55664 11.1143 8.39258 11.1143 8.20117V6.69043C11.1143 6.48991 11.1781 6.32585 11.3057 6.19824C11.4333 6.06608 11.586 6 11.7637 6C11.9369 6 12.0873 6.06608 12.2149 6.19824C12.3425 6.32585 12.4063 6.48991 12.4063 6.69043V8.20117C12.4063 8.39258 12.3425 8.55664 12.2149 8.69336C12.0873 8.82552 11.9369 8.8916 11.7637 8.8916ZM3.74512 17.375C3.54004 17.375 3.36458 17.3021 3.21875 17.1563C3.07291 17.015 3 16.8486 3 16.6572C3 16.4613 3.07291 16.2926 3.21875 16.1514C3.36458 16.0101 3.54004 15.9395 3.74512 15.9395H19.7754C19.9805 15.9395 20.156 16.0101 20.3018 16.1514C20.4476 16.2881 20.5205 16.4567 20.5205 16.6572C20.5205 16.8486 20.4476 17.015 20.3018 17.1563C20.156 17.3021 19.9805 17.375 19.7754 17.375H3.74512Z"/>
</svg>
