<svg width="24" height="24" viewBox="0 0 24 24" fill="none" xmlns="http://www.w3.org/2000/svg">
<path d="M15.7119 12.7598C15.7119 12.9648 15.6937 13.1631 15.6572 13.3545C15.6208 13.5459 15.5661 13.7282 15.4932 13.9014H8.5C8.42708 13.7282 8.3724 13.5459 8.33594 13.3545C8.29948 13.1631 8.28125 12.9648 8.28125 12.7598C8.28125 12.2539 8.37695 11.7754 8.56836 11.3242C8.76432 10.873 9.0332 10.4766 9.375 10.1348C9.7168 9.79297 10.111 9.52637 10.5576 9.33496C11.0042 9.139 11.485 9.04102 12 9.04102C12.5104 9.04102 12.9889 9.139 13.4355 9.33496C13.8822 9.52637 14.2764 9.79297 14.6182 10.1348C14.96 10.4766 15.2266 10.873 15.418 11.3242C15.6139 11.7754 15.7119 12.2539 15.7119 12.7598ZM4.80176 13.0947C4.60579 13.0947 4.44173 13.0332 4.30957 12.9102C4.17741 12.7826 4.11133 12.6299 4.11133 12.4521C4.11133 12.2744 4.17741 12.124 4.30957 12.001C4.44173 11.8734 4.60579 11.8096 4.80176 11.8096H6.3125C6.50846 11.8096 6.67025 11.8734 6.79785 12.001C6.93001 12.124 6.99837 12.2744 7.00293 12.4521C7.00293 12.6299 6.93685 12.7826 6.80469 12.9102C6.67253 13.0378 6.50846 13.1016 6.3125 13.1016L4.80176 13.0947ZM7.51562 9.21191L6.44922 8.14551C6.30794 8.00423 6.23503 7.84245 6.23047 7.66016C6.23047 7.47786 6.29427 7.3252 6.42188 7.20215C6.54948 7.0791 6.70215 7.01986 6.87988 7.02441C7.06217 7.02441 7.22396 7.09277 7.36523 7.22949L8.43164 8.2959C8.57292 8.43717 8.64355 8.59896 8.64355 8.78125C8.64811 8.96354 8.58887 9.11849 8.46582 9.24609C8.34277 9.3737 8.18783 9.43522 8.00098 9.43066C7.81413 9.42155 7.65234 9.34863 7.51562 9.21191ZM15.5273 9.24609C15.3997 9.12305 15.3382 8.97038 15.3428 8.78809C15.3473 8.60124 15.4202 8.43717 15.5615 8.2959L16.6279 7.22949C16.7692 7.09277 16.931 7.02214 17.1133 7.01758C17.2956 7.01302 17.4482 7.07454 17.5713 7.20215C17.6989 7.32975 17.7604 7.4847 17.7559 7.66699C17.7559 7.84473 17.6852 8.00423 17.5439 8.14551L16.4775 9.21191C16.3408 9.34863 16.179 9.41927 15.9922 9.42383C15.8099 9.42839 15.6549 9.36914 15.5273 9.24609ZM17.6807 13.0947C17.4893 13.0947 17.3275 13.0332 17.1953 12.9102C17.0632 12.7826 16.9948 12.6299 16.9902 12.4521C16.9902 12.2744 17.0563 12.124 17.1885 12.001C17.3252 11.8734 17.4893 11.8096 17.6807 11.8096H19.1914C19.3919 11.8096 19.556 11.8734 19.6836 12.001C19.8158 12.124 19.8818 12.2744 19.8818 12.4521C19.8818 12.6299 19.8158 12.7826 19.6836 12.9102C19.556 13.0332 19.3919 13.0947 19.1914 13.0947H17.6807ZM12 7.7832C11.8223 7.7832 11.6696 7.71712 11.542 7.58496C11.4144 7.44824 11.3506 7.28418 11.3506 7.09277V5.58203C11.3506 5.38151 11.4144 5.21745 11.542 5.08984C11.6696 4.95768 11.8223 4.8916 12 4.8916C12.1732 4.8916 12.3236 4.95768 12.4512 5.08984C12.5788 5.21745 12.6426 5.38151 12.6426 5.58203V7.09277C12.6426 7.28418 12.5788 7.44824 12.4512 7.58496C12.3236 7.71712 12.1732 7.7832 12 7.7832ZM3.98145 16.2666C3.77637 16.2666 3.60091 16.1937 3.45508 16.0479C3.30924 15.9066 3.23633 15.7402 3.23633 15.5488C3.23633 15.3529 3.30924 15.1842 3.45508 15.043C3.60091 14.9017 3.77637 14.8311 3.98145 14.8311H20.0117C20.2168 14.8311 20.3923 14.9017 20.5381 15.043C20.6839 15.1797 20.7568 15.3483 20.7568 15.5488C20.7568 15.7402 20.6839 15.9066 20.5381 16.0479C20.3923 16.1937 20.2168 16.2666 20.0117 16.2666H3.98145Z" fill="#403E3F"/>
</svg>
