<svg width="40" height="40" viewBox="0 0 40 40" fill="none" xmlns="http://www.w3.org/2000/svg">
    <g clip-path="url(#clip0_263_808)">
        <path d="M16.7259 6.632L2.81088 30.734C1.35588 33.254 3.17488 36.404 6.08488 36.404H33.9159C36.8259 36.404 38.6439 33.254 37.1899 30.734L23.2739 6.632C21.8189 4.112 18.1809 4.112 16.7259 6.632Z"
              fill="#FFCD00"/>
        <path d="M19.9994 27.547C18.9554 27.547 18.1094 28.393 18.1094 29.437C18.1094 30.481 18.9554 31.327 19.9994 31.327C21.0434 31.327 21.8894 30.481 21.8894 29.437C21.8894 28.393 21.0434 27.547 19.9994 27.547Z"
              fill="#303D4C"/>
        <path d="M19.9984 25.078C19.1144 25.078 18.3984 24.362 18.3984 23.478V15.603C18.3984 14.719 19.1144 14.003 19.9984 14.003C20.8824 14.003 21.5984 14.719 21.5984 15.603V23.478C21.5984 24.362 20.8824 25.078 19.9984 25.078Z"
              fill="#303D4C"/>
    </g>
    <defs>
        <clipPath id="clip0_263_808">
            <rect width="40" height="40" fill="white"/>
        </clipPath>
    </defs>
</svg>
