<svg width="26" height="26" viewBox="0 0 26 26" fill="none" xmlns="http://www.w3.org/2000/svg">
    <g clip-path="url(#clip0_1329_446)">
        <path d="M13 1.83435C6.71775 1.83435 1.625 6.39345 1.625 12.0173C1.625 14.2624 2.44335 16.3326 3.8207 18.0148C4.3251 18.631 4.55585 19.4259 4.40375 20.2072L3.783 23.3903C3.679 23.9246 4.238 24.3426 4.72095 24.091L8.4994 22.1241C9.03305 21.8465 9.6473 21.7562 10.2342 21.8894C11.1195 22.0903 12.0451 22.2001 13 22.2001C19.2822 22.2001 24.375 17.6411 24.375 12.0173C24.375 6.39345 19.2822 1.83435 13 1.83435Z"
              fill="#E2E5E8"/>
        <path d="M8.29007 11.0696C8.99337 11.0696 9.56277 11.6396 9.56277 12.3423C9.56277 12.6796 9.42887 13.0033 9.18967 13.2425C8.95112 13.4811 8.62742 13.6156 8.28942 13.6156C7.58612 13.6156 7.01672 13.0456 7.01672 12.3429C7.01672 11.6403 7.58677 11.0702 8.28942 11.0702L8.29007 11.0696Z"
              fill="#333D4B"/>
        <path d="M17.7098 13.615C18.4127 13.615 18.9825 13.0452 18.9825 12.3423C18.9825 11.6394 18.4127 11.0696 17.7098 11.0696C17.0069 11.0696 16.4371 11.6394 16.4371 12.3423C16.4371 13.0452 17.0069 13.615 17.7098 13.615Z"
              fill="#333D4B"/>
        <path d="M13 13.615C13.7029 13.615 14.2727 13.0452 14.2727 12.3423C14.2727 11.6394 13.7029 11.0696 13 11.0696C12.2971 11.0696 11.7273 11.6394 11.7273 12.3423C11.7273 13.0452 12.2971 13.615 13 13.615Z"
              fill="#333D4B"/>
    </g>
    <defs>
        <clipPath id="clip0_1329_446">
            <rect width="26" height="26" fill="white"/>
        </clipPath>
    </defs>
</svg>
