<svg width="24" height="24" viewBox="0 0 24 24" fill="none" xmlns="http://www.w3.org/2000/svg">
    <path d="M15.4522 13.9961C15.8532 13.9961 16.2451 13.9596 16.6279 13.8867C17.0107 13.8138 17.3252 13.7318 17.5713 13.6406C17.7445 13.5632 17.8926 13.5244 18.0156 13.5244C18.1341 13.5244 18.2367 13.5677 18.3232 13.6543C18.4144 13.7409 18.46 13.8525 18.46 13.9893C18.46 14.0439 18.4508 14.1146 18.4326 14.2012C18.4189 14.2878 18.3916 14.3812 18.3506 14.4814C18.1182 15.0602 17.7923 15.5957 17.373 16.0879C16.9583 16.5755 16.4707 17.0016 15.9102 17.3662C15.3542 17.7308 14.7458 18.0133 14.085 18.2139C13.4287 18.4189 12.7383 18.5215 12.0137 18.5215C11.0156 18.5215 10.0905 18.3529 9.23828 18.0156C8.38607 17.6784 7.64323 17.1999 7.00977 16.5801C6.3763 15.9603 5.88184 15.2311 5.52637 14.3926C5.17546 13.554 5 12.6335 5 11.6309C5 10.683 5.17546 9.77604 5.52637 8.91016C5.88184 8.03972 6.37858 7.27181 7.0166 6.60645C7.65462 5.94108 8.39746 5.4375 9.24512 5.09571C9.33626 5.05925 9.42285 5.03418 9.50488 5.02051C9.58692 5.00684 9.65755 5 9.7168 5C9.8626 5 9.9743 5.04558 10.0518 5.13672C10.1338 5.22787 10.1748 5.33041 10.1748 5.44434C10.1748 5.50358 10.1657 5.56966 10.1475 5.64258C10.1292 5.71094 10.0996 5.79297 10.0586 5.88868C9.972 6.07097 9.8968 6.29655 9.833 6.56543C9.7692 6.83431 9.71908 7.11687 9.68262 7.41309C9.64616 7.70931 9.62793 7.98959 9.62793 8.25391C9.62793 9.14258 9.7624 9.94011 10.0313 10.6465C10.3047 11.3529 10.6943 11.9567 11.2002 12.458C11.7106 12.9548 12.3236 13.3353 13.0391 13.5996C13.7546 13.8639 14.5589 13.9961 15.4522 13.9961Z"/>
</svg>
