<svg width="24" height="24" viewBox="0 0 24 24" fill="none" xmlns="http://www.w3.org/2000/svg">
<path d="M15.7188 13.2793C16.1198 13.2793 16.5117 13.2428 16.8945 13.1699C17.2773 13.097 17.5918 13.015 17.8379 12.9238C18.0111 12.8464 18.1592 12.8076 18.2822 12.8076C18.4007 12.8076 18.5033 12.8509 18.5898 12.9375C18.681 13.0241 18.7266 13.1357 18.7266 13.2725C18.7266 13.3271 18.7174 13.3978 18.6992 13.4844C18.6855 13.571 18.6582 13.6644 18.6172 13.7646C18.3848 14.3434 18.0589 14.8789 17.6396 15.3711C17.2249 15.8587 16.7373 16.2848 16.1768 16.6494C15.6208 17.014 15.0124 17.2965 14.3516 17.4971C13.6953 17.7021 13.0049 17.8047 12.2803 17.8047C11.2822 17.8047 10.3571 17.6361 9.50488 17.2988C8.65267 16.9616 7.90983 16.4831 7.27637 15.8633C6.6429 15.2435 6.14844 14.5143 5.79297 13.6758C5.44206 12.8372 5.2666 11.9167 5.2666 10.9141C5.2666 9.96615 5.44206 9.05924 5.79297 8.19336C6.14844 7.32292 6.64518 6.55501 7.2832 5.88965C7.92122 5.22428 8.66406 4.7207 9.51172 4.37891C9.60286 4.34245 9.68945 4.31738 9.77148 4.30371C9.85352 4.29004 9.92415 4.2832 9.9834 4.2832C10.1292 4.2832 10.2409 4.32878 10.3184 4.41992C10.4004 4.51107 10.4414 4.61361 10.4414 4.72754C10.4414 4.78678 10.4323 4.85286 10.4141 4.92578C10.3958 4.99414 10.3662 5.07617 10.3252 5.17188C10.2386 5.35417 10.1634 5.57975 10.0996 5.84863C10.0358 6.11751 9.98568 6.40007 9.94922 6.69629C9.91276 6.99251 9.89453 7.27279 9.89453 7.53711C9.89453 8.42578 10.029 9.22331 10.2979 9.92969C10.5713 10.6361 10.9609 11.2399 11.4668 11.7412C11.9772 12.238 12.5902 12.6185 13.3057 12.8828C14.0212 13.1471 14.8255 13.2793 15.7188 13.2793Z" fill="#403E3F"/>
</svg>
