<svg width="24" height="24" viewBox="0 0 24 24" fill="none" xmlns="http://www.w3.org/2000/svg">
<rect x="7.62598" y="19.3916" width="14.784" height="3.264" rx="1.632" transform="rotate(-90 7.62598 19.3916)" fill="#D4D7DC"/>
<path d="M8.0496 10.9455C8.62897 10.255 9.65836 10.165 10.3488 10.7443L17.041 16.3597C17.7314 16.9391 17.8215 17.9685 17.2421 18.6589V18.6589C16.6628 19.3494 15.6334 19.4395 14.9429 18.8601L8.25076 13.2447C7.5603 12.6653 7.47024 11.636 8.0496 10.9455V10.9455Z" fill="#D4D7DC"/>
<rect x="7.00098" y="11.793" width="11.983" height="3.264" rx="1.632" transform="rotate(-40 7.00098 11.793)" fill="#D4D7DC"/>
<circle cx="9.25798" cy="11.9992" r="1.632" fill="#A7ADB9" fill-opacity="0.8"/>
<circle cx="15.9777" cy="6.33561" r="1.632" fill="#A7ADB9" fill-opacity="0.8"/>
<circle cx="15.9777" cy="17.6154" r="1.632" fill="#A7ADB9" fill-opacity="0.8"/>
<circle cx="9.25798" cy="6.23942" r="1.632" fill="#A7ADB9" fill-opacity="0.8"/>
<circle cx="9.257" cy="17.7599" r="1.632" fill="#A7ADB9" fill-opacity="0.8"/>
</svg>
