<svg width="26" height="26" viewBox="0 0 26 26" fill="none" xmlns="http://www.w3.org/2000/svg">
    <g clip-path="url(#clip0_1663_660)">
        <path d="M18.0257 15.4785C18.105 15.3563 18.1798 15.2282 18.2493 15.0943C19.1164 13.429 18.8961 11.2502 17.6617 9.59726C15.6142 6.85686 11.8923 6.44411 9.80322 8.53321C9.73757 8.59886 9.67452 8.66581 9.61407 8.73471C9.00372 9.43021 8.11257 9.78966 7.15122 9.86636C5.51582 9.99766 3.96687 10.6717 2.79102 11.9048C0.205967 14.6153 0.402916 19.2374 3.23627 22.284C6.34457 25.6256 11.3177 25.963 14.1946 23.0861C15.076 22.2047 15.6558 21.1263 15.9392 19.9654C16.3396 18.3274 17.1261 16.8617 18.0251 15.4778L18.0257 15.4785Z"
              fill="#FFAA00"/>
        <path d="M20.5494 4.0452L13.3315 11.2631L14.726 12.6575L21.9439 5.43968L20.5494 4.0452Z" fill="#3D3D3D"/>
        <path d="M9.30005 19.0828L6.90498 16.6877C6.69911 16.4818 6.36534 16.4818 6.15947 16.6877C5.95361 16.8936 5.95361 17.2273 6.15948 17.4332L8.55455 19.8283C8.76042 20.0341 9.09419 20.0341 9.30005 19.8283C9.50592 19.6224 9.50592 19.2886 9.30005 19.0828Z"
              fill="#F77F00"/>
        <path d="M12.6078 15.6761C13.8757 15.6761 14.9036 14.6482 14.9036 13.3803C14.9036 12.1123 13.8757 11.0845 12.6078 11.0845C11.3399 11.0845 10.312 12.1123 10.312 13.3803C10.312 14.6482 11.3399 15.6761 12.6078 15.6761Z"
              fill="#3D3D3D"/>
        <path d="M20.5818 3.38193L22.5467 1.14203C22.7469 0.913883 23.0992 0.902183 23.3137 1.11668L24.8711 2.67408C25.0863 2.88923 25.0746 3.24088 24.8458 3.44108L22.6059 5.40603C22.3979 5.58868 22.0833 5.57828 21.887 5.38263L20.6045 4.10018C20.4089 3.90453 20.3985 3.58993 20.5811 3.38128L20.5818 3.38193Z"
              fill="#FFAA00"/>
    </g>
    <defs>
        <clipPath id="clip0_1663_660">
            <rect width="26" height="26" fill="white"/>
        </clipPath>
    </defs>
</svg>
