<svg width="24" height="24" viewBox="0 0 24 24" fill="#000000" xmlns="http://www.w3.org/2000/svg">
    <path d="M20.9994 11.9989V18.4102C20.9994 19.8376 19.8361 21.0009 18.4087 21.0009H14.4061C14.1045 21.0009 13.8607 20.7564 13.8607 20.4556V15.9304C13.8607 15.4803 13.4928 15.1124 13.0427 15.1124H10.9567C10.5066 15.1124 10.1387 15.4803 10.1387 15.9304V20.4556C10.1387 20.7571 9.8941 21.0009 9.59331 21.0009H5.59072C4.16331 21.0009 3 19.8376 3 18.4102V11.9989C3 11.2957 3.26251 10.6629 3.75942 10.1668L10.1667 3.75707C11.1761 2.74764 12.8208 2.74764 13.8309 3.75707L20.2406 10.1668C20.7367 10.6629 21 11.2957 21 11.9989H20.9994Z"/>
</svg>
