<svg width="24" height="24" viewBox="0 0 24 24" fill="none" xmlns="http://www.w3.org/2000/svg">
    <path d="M11.7588 15.4434C11.2529 15.4434 10.779 15.3476 10.3369 15.1562C9.89489 14.9648 9.50293 14.7005 9.16113 14.3633C8.82389 14.026 8.55957 13.6364 8.36817 13.1943C8.18132 12.7477 8.08789 12.2738 8.08789 11.7725C8.08789 11.2666 8.18132 10.7926 8.36817 10.3506C8.55957 9.90397 8.82389 9.51205 9.16113 9.17481C9.50293 8.83757 9.89489 8.57324 10.3369 8.38184C10.779 8.19043 11.2529 8.09473 11.7588 8.09473C12.2601 8.09473 12.7318 8.19043 13.1738 8.38184C13.6159 8.57324 14.0055 8.83757 14.3428 9.17481C14.6846 9.51205 14.9489 9.90397 15.1358 10.3506C15.3272 10.7926 15.4229 11.2666 15.4229 11.7725C15.4229 12.2738 15.3272 12.7477 15.1358 13.1943C14.9489 13.6364 14.6846 14.026 14.3428 14.3633C14.0055 14.7005 13.6159 14.9648 13.1738 15.1562C12.7318 15.3476 12.2601 15.4434 11.7588 15.4434ZM11.7588 6.8916C11.5537 6.8916 11.376 6.81869 11.2256 6.67285C11.0798 6.52246 11.0068 6.34473 11.0068 6.13965V4.75879C11.0068 4.55371 11.0798 4.37598 11.2256 4.22559C11.376 4.0752 11.5537 4 11.7588 4C11.9639 4 12.1393 4.0752 12.2852 4.22559C12.4356 4.37598 12.5108 4.55371 12.5108 4.75879V6.13965C12.5108 6.34473 12.4356 6.52246 12.2852 6.67285C12.1393 6.81869 11.9639 6.8916 11.7588 6.8916ZM15.2041 8.34082C15.0628 8.19499 14.9899 8.01725 14.9854 7.80762C14.9854 7.59798 15.056 7.42253 15.1973 7.28125L16.1885 6.29004C16.3298 6.14877 16.5052 6.07813 16.7149 6.07813C16.9245 6.07357 17.0999 6.14193 17.2412 6.28321C17.3871 6.42904 17.46 6.60905 17.46 6.82324C17.4645 7.03288 17.3939 7.20834 17.2481 7.34961L16.2705 8.33399C16.1247 8.47982 15.947 8.55274 15.7373 8.55274C15.5277 8.55274 15.3499 8.4821 15.2041 8.34082ZM16.6328 11.7725C16.6328 11.5674 16.7057 11.3919 16.8516 11.2461C17.002 11.0957 17.1797 11.0205 17.3848 11.0205H18.7725C18.973 11.0205 19.1462 11.0957 19.292 11.2461C19.4424 11.3919 19.5176 11.5674 19.5176 11.7725C19.5176 11.973 19.4424 12.1484 19.292 12.2988C19.1462 12.4447 18.973 12.5176 18.7725 12.5176H17.3848C17.1797 12.5176 17.002 12.4447 16.8516 12.2988C16.7057 12.1484 16.6328 11.973 16.6328 11.7725ZM15.1973 15.2178C15.3431 15.0765 15.5208 15.0059 15.7305 15.0059C15.9401 15.0013 16.1156 15.0697 16.2568 15.2109L17.2481 16.1953C17.3939 16.3411 17.4668 16.5166 17.4668 16.7217C17.4668 16.9313 17.3962 17.109 17.2549 17.2549C17.1091 17.3916 16.9313 17.4622 16.7217 17.4668C16.5121 17.4713 16.3366 17.403 16.1953 17.2617L15.2041 16.2705C15.0628 16.1292 14.9899 15.956 14.9854 15.751C14.9854 15.5413 15.056 15.3636 15.1973 15.2178ZM11.7588 16.6533C11.9639 16.6533 12.1393 16.7262 12.2852 16.8721C12.4356 17.0225 12.5108 17.1979 12.5108 17.3984V18.7861C12.5108 18.9912 12.4356 19.1667 12.2852 19.3125C12.1393 19.4629 11.9639 19.5381 11.7588 19.5381C11.5537 19.5381 11.376 19.4629 11.2256 19.3125C11.0798 19.1667 11.0068 18.9912 11.0068 18.7861V17.3984C11.0068 17.1979 11.0798 17.0225 11.2256 16.8721C11.376 16.7262 11.5537 16.6533 11.7588 16.6533ZM8.32031 15.2178C8.45703 15.3636 8.52311 15.5413 8.51856 15.751C8.51856 15.956 8.44792 16.1292 8.30664 16.2705L7.32227 17.2617C7.17643 17.3984 6.9987 17.4645 6.78906 17.46C6.57943 17.46 6.40169 17.3893 6.25586 17.248C6.11458 17.1022 6.04395 16.9245 6.04395 16.7148C6.0485 16.5098 6.1237 16.3343 6.26953 16.1885L7.25391 15.2109C7.39518 15.0697 7.57064 15.0013 7.78027 15.0059C7.99447 15.0059 8.17448 15.0765 8.32031 15.2178ZM6.88477 11.7725C6.88477 11.973 6.80957 12.1484 6.65918 12.2988C6.51335 12.4447 6.33561 12.5176 6.12598 12.5176H4.74512C4.5446 12.5176 4.36914 12.4447 4.21875 12.2988C4.07292 12.1484 4 11.973 4 11.7725C4 11.5674 4.07292 11.3919 4.21875 11.2461C4.36914 11.0957 4.5446 11.0205 4.74512 11.0205H6.12598C6.33561 11.0205 6.51335 11.0957 6.65918 11.2461C6.80957 11.3919 6.88477 11.5674 6.88477 11.7725ZM8.30664 8.34082C8.16081 8.4821 7.98307 8.55274 7.77344 8.55274C7.5638 8.54818 7.38835 8.47526 7.24707 8.33399L6.2627 7.34278C6.12598 7.20606 6.05762 7.03288 6.05762 6.82324C6.05762 6.60905 6.13053 6.42904 6.27637 6.28321C6.41764 6.14193 6.5931 6.07357 6.80274 6.07813C7.01237 6.07813 7.19011 6.14877 7.33594 6.29004L8.32031 7.28125C8.45703 7.42253 8.52311 7.60026 8.51856 7.81446C8.51856 8.02409 8.44792 8.19955 8.30664 8.34082Z"/>
</svg>
