<svg width="24" height="24" viewBox="0 0 24 24" fill="none" xmlns="http://www.w3.org/2000/svg">
<path d="M12 14.7354C11.4941 14.7354 11.0202 14.6396 10.5781 14.4482C10.1361 14.2568 9.74414 13.9925 9.40234 13.6553C9.0651 13.318 8.80078 12.9284 8.60938 12.4863C8.42253 12.0397 8.3291 11.5658 8.3291 11.0645C8.3291 10.5586 8.42253 10.0846 8.60938 9.64258C8.80078 9.19596 9.0651 8.80404 9.40234 8.4668C9.74414 8.12956 10.1361 7.86523 10.5781 7.67383C11.0202 7.48242 11.4941 7.38672 12 7.38672C12.5013 7.38672 12.973 7.48242 13.415 7.67383C13.8571 7.86523 14.2467 8.12956 14.584 8.4668C14.9258 8.80404 15.1901 9.19596 15.377 9.64258C15.5684 10.0846 15.6641 10.5586 15.6641 11.0645C15.6641 11.5658 15.5684 12.0397 15.377 12.4863C15.1901 12.9284 14.9258 13.318 14.584 13.6553C14.2467 13.9925 13.8571 14.2568 13.415 14.4482C12.973 14.6396 12.5013 14.7354 12 14.7354ZM12 6.18359C11.7949 6.18359 11.6172 6.11068 11.4668 5.96484C11.321 5.81445 11.248 5.63672 11.248 5.43164V4.05078C11.248 3.8457 11.321 3.66797 11.4668 3.51758C11.6172 3.36719 11.7949 3.29199 12 3.29199C12.2051 3.29199 12.3805 3.36719 12.5264 3.51758C12.6768 3.66797 12.752 3.8457 12.752 4.05078V5.43164C12.752 5.63672 12.6768 5.81445 12.5264 5.96484C12.3805 6.11068 12.2051 6.18359 12 6.18359ZM15.4453 7.63281C15.304 7.48698 15.2311 7.30924 15.2266 7.09961C15.2266 6.88997 15.2972 6.71452 15.4385 6.57324L16.4297 5.58203C16.571 5.44076 16.7464 5.37012 16.9561 5.37012C17.1657 5.36556 17.3411 5.43392 17.4824 5.5752C17.6283 5.72103 17.7012 5.90104 17.7012 6.11523C17.7057 6.32487 17.6351 6.50033 17.4893 6.6416L16.5117 7.62598C16.3659 7.77181 16.1882 7.84473 15.9785 7.84473C15.7689 7.84473 15.5911 7.77409 15.4453 7.63281ZM16.874 11.0645C16.874 10.8594 16.9469 10.6839 17.0928 10.5381C17.2432 10.3877 17.4209 10.3125 17.626 10.3125H19.0137C19.2142 10.3125 19.3874 10.3877 19.5332 10.5381C19.6836 10.6839 19.7588 10.8594 19.7588 11.0645C19.7588 11.265 19.6836 11.4404 19.5332 11.5908C19.3874 11.7367 19.2142 11.8096 19.0137 11.8096H17.626C17.4209 11.8096 17.2432 11.7367 17.0928 11.5908C16.9469 11.4404 16.874 11.265 16.874 11.0645ZM15.4385 14.5098C15.5843 14.3685 15.762 14.2979 15.9717 14.2979C16.1813 14.2933 16.3568 14.3617 16.498 14.5029L17.4893 15.4873C17.6351 15.6331 17.708 15.8086 17.708 16.0137C17.708 16.2233 17.6374 16.401 17.4961 16.5469C17.3503 16.6836 17.1725 16.7542 16.9629 16.7588C16.7533 16.7633 16.5778 16.695 16.4365 16.5537L15.4453 15.5625C15.304 15.4212 15.2311 15.248 15.2266 15.043C15.2266 14.8333 15.2972 14.6556 15.4385 14.5098ZM12 15.9453C12.2051 15.9453 12.3805 16.0182 12.5264 16.1641C12.6768 16.3145 12.752 16.4899 12.752 16.6904V18.0781C12.752 18.2832 12.6768 18.4587 12.5264 18.6045C12.3805 18.7549 12.2051 18.8301 12 18.8301C11.7949 18.8301 11.6172 18.7549 11.4668 18.6045C11.321 18.4587 11.248 18.2832 11.248 18.0781V16.6904C11.248 16.4899 11.321 16.3145 11.4668 16.1641C11.6172 16.0182 11.7949 15.9453 12 15.9453ZM8.56152 14.5098C8.69824 14.6556 8.76432 14.8333 8.75977 15.043C8.75977 15.248 8.68913 15.4212 8.54785 15.5625L7.56348 16.5537C7.41764 16.6904 7.23991 16.7565 7.03027 16.752C6.82064 16.752 6.6429 16.6813 6.49707 16.54C6.35579 16.3942 6.28516 16.2165 6.28516 16.0068C6.28971 15.8018 6.36491 15.6263 6.51074 15.4805L7.49512 14.5029C7.63639 14.3617 7.81185 14.2933 8.02148 14.2979C8.23568 14.2979 8.41569 14.3685 8.56152 14.5098ZM7.12598 11.0645C7.12598 11.265 7.05078 11.4404 6.90039 11.5908C6.75456 11.7367 6.57682 11.8096 6.36719 11.8096H4.98633C4.78581 11.8096 4.61035 11.7367 4.45996 11.5908C4.31413 11.4404 4.24121 11.265 4.24121 11.0645C4.24121 10.8594 4.31413 10.6839 4.45996 10.5381C4.61035 10.3877 4.78581 10.3125 4.98633 10.3125H6.36719C6.57682 10.3125 6.75456 10.3877 6.90039 10.5381C7.05078 10.6839 7.12598 10.8594 7.12598 11.0645ZM8.54785 7.63281C8.40202 7.77409 8.22428 7.84473 8.01465 7.84473C7.80501 7.84017 7.62956 7.76725 7.48828 7.62598L6.50391 6.63477C6.36719 6.49805 6.29883 6.32487 6.29883 6.11523C6.29883 5.90104 6.37174 5.72103 6.51758 5.5752C6.65885 5.43392 6.83431 5.36556 7.04395 5.37012C7.25358 5.37012 7.43132 5.44076 7.57715 5.58203L8.56152 6.57324C8.69824 6.71452 8.76432 6.89225 8.75977 7.10645C8.75977 7.31608 8.68913 7.49154 8.54785 7.63281Z" fill="#403E3F"/>
</svg>
