<svg width="25" height="25" viewBox="0 0 25 25" fill="none" xmlns="http://www.w3.org/2000/svg">
    <g clip-path="url(#clip0_2111_1853)">
        <path d="M1.57275 7.646V17.5706C1.57275 18.2612 1.82235 18.887 2.22315 19.3874L9.09135 13.9124L1.57275 7.646Z"
              fill="#D0D5DA"/>
        <path d="M22.5221 19.3868C22.9229 18.887 23.1725 18.2606 23.1725 17.57V7.646L15.6533 13.9118L22.5221 19.3868Z"
              fill="#D0D5DA"/>
        <path d="M10.3856 13.718L1.57275 7.646L9.09195 13.9118L10.3856 14.99C11.582 15.9176 13.1636 15.9176 14.3606 14.99L15.6542 13.9118L23.1734 7.646L14.3606 13.718C13.1642 14.5424 11.5826 14.5424 10.3856 13.718Z"
              fill="#AFB7C0"/>
        <path d="M14.3599 14.9903C13.1635 15.9179 11.5819 15.9179 10.3849 14.9903L9.09134 13.9121L2.22314 19.3871C2.75834 20.0537 3.57014 20.4893 4.49114 20.4893H20.2531C21.1747 20.4893 21.9865 20.0537 22.5211 19.3871L15.6529 13.9121L14.3599 14.9903Z"
              fill="#E5E9EE"/>
        <path d="M20.1728 3.55957H4.57275C2.91615 3.55957 1.57275 4.90297 1.57275 6.55957V7.64617L10.3856 13.7182C11.582 14.5426 13.1636 14.5426 14.3606 13.7182L23.1734 7.64617V6.55957C23.1734 4.90297 21.8294 3.55957 20.1728 3.55957Z"
              fill="#E5E9EE"/>
    </g>
    <defs>
        <clipPath id="clip0_2111_1853">
            <rect width="24" height="24" fill="white" transform="translate(0.372559 0.0244141)"/>
        </clipPath>
    </defs>
</svg>
