<svg width="26" height="26" viewBox="0 0 26 26" fill="none" xmlns="http://www.w3.org/2000/svg">
    <g clip-path="url(#clip0_1599_703)">
        <g clip-path="url(#clip1_1599_703)">
            <g clip-path="url(#clip2_1599_703)">
                <path d="M17.7891 6.84473C17.7891 9.1375 14.7194 13.2233 13.3715 14.9072C13.0481 15.3104 12.4477 15.3104 12.1285 14.9072C10.7806 13.2233 7.71094 9.1375 7.71094 6.84473C7.71094 4.06064 9.96592 1.80566 12.75 1.80566C15.5341 1.80566 17.7891 4.06064 17.7891 6.84473ZM18.125 10.2209C18.272 9.93115 18.4063 9.64141 18.5281 9.35586C18.5491 9.30547 18.5701 9.25088 18.5911 9.20049L23.4622 7.25205C24.1257 6.9875 24.8438 7.47461 24.8438 8.18848V19.56C24.8438 19.9715 24.5918 20.341 24.2097 20.4964L18.125 22.9277V10.2209ZM6.43438 7.61318C6.53516 8.20527 6.73672 8.80156 6.97187 9.35586C7.09365 9.64141 7.22803 9.93115 7.375 10.2209V20.7777L2.03779 22.9151C1.37432 23.1797 0.65625 22.6926 0.65625 21.9787V10.6072C0.65625 10.1957 0.908203 9.82617 1.29033 9.6708L6.43857 7.61318H6.43438ZM14.4213 15.7471C15.005 15.0164 15.9204 13.828 16.7812 12.5137V22.9823L8.71875 20.677V12.5137C9.57959 13.828 10.495 15.0164 11.0787 15.7471C11.9396 16.8221 13.5604 16.8221 14.4213 15.7471ZM12.75 8.18848C13.1955 8.18848 13.6227 8.01151 13.9377 7.69651C14.2527 7.3815 14.4297 6.95427 14.4297 6.50879C14.4297 6.06331 14.2527 5.63607 13.9377 5.32107C13.6227 5.00607 13.1955 4.8291 12.75 4.8291C12.3045 4.8291 11.8773 5.00607 11.5623 5.32107C11.2473 5.63607 11.0703 6.06331 11.0703 6.50879C11.0703 6.95427 11.2473 7.3815 11.5623 7.69651C11.8773 8.01151 12.3045 8.18848 12.75 8.18848Z"
                      fill="#B0B9C2"/>
            </g>
        </g>
    </g>
    <defs>
        <clipPath id="clip0_1599_703">
            <rect width="26" height="26" fill="white"/>
        </clipPath>
        <clipPath id="clip1_1599_703">
            <rect width="21.5" height="21.5" fill="white" transform="translate(2 2)"/>
        </clipPath>
        <clipPath id="clip2_1599_703">
            <rect width="24.1875" height="21.5" fill="white" transform="translate(0.65625 1.80566)"/>
        </clipPath>
    </defs>
</svg>
