<svg width="26" height="26" viewBox="0 0 26 26" fill="none" xmlns="http://www.w3.org/2000/svg">
    <g clip-path="url(#clip0_1689_618)">
        <path d="M13.777 22.3925C14.0714 22.3925 14.3471 22.2722 14.5726 22.0831C15.5054 21.3011 16.6877 20.8682 17.9142 20.8682H23.0856C23.7675 20.8682 24.3207 20.3151 24.3207 19.6332V6.07745H1.6792V19.6332C1.6792 20.3151 2.23235 20.8682 2.9142 20.8682H8.0856C9.31215 20.8682 10.4945 21.3018 11.4272 22.0831C11.6528 22.2722 11.9284 22.3925 12.2229 22.3925H13.777Z"
              fill="#007FF2"/>
        <path d="M13 21.1575C13.9756 20.1818 15.299 19.6332 16.679 19.6332H23.0854C23.7672 19.6332 24.3204 19.0801 24.3204 18.3982V4.84248C24.3204 4.16063 23.7672 3.60748 23.0854 3.60748H16.679C15.299 3.60748 13.9756 4.15543 13 5.13173"
              fill="#C0C7D1"/>
        <path d="M13.0002 21.1575C12.0246 20.1818 10.7012 19.6332 9.32125 19.6332H2.9142C2.23235 19.6332 1.6792 19.0801 1.6792 18.3982V4.84248C1.6792 4.16063 2.23235 3.60748 2.9142 3.60748H9.3206C10.7005 3.60748 12.0239 4.15543 12.9996 5.13173"
              fill="#E5E8EB"/>
    </g>
    <defs>
        <clipPath id="clip0_1689_618">
            <rect width="26" height="26" fill="white"/>
        </clipPath>
    </defs>
</svg>
