<svg width="26" height="26" viewBox="0 0 26 26" fill="none" xmlns="http://www.w3.org/2000/svg">
    <path d="M22.7611 13.661V20.4893H3.23895V13.661C3.23895 12.5814 4.1145 11.7058 5.19415 11.7058H20.8059C21.8855 11.7058 22.7611 12.5814 22.7611 13.661Z"
          fill="#FFB72D"/>
    <path d="M18.4152 20.4893H22.7611V21.7711C22.7611 22.3392 22.3002 22.8001 21.7321 22.8001H19.4448C18.8767 22.8001 18.4158 22.3392 18.4158 21.7711V20.4893H18.4152Z"
          fill="#333D4B"/>
    <path d="M11.856 3.1993H14.1434C14.7115 3.1993 15.1723 3.66015 15.1723 4.22825V5.51005H10.8264V4.22825C10.8264 3.66015 11.2879 3.1993 11.856 3.1993Z"
          fill="#FFB72D"/>
    <path d="M3.23895 20.4893H7.58485V21.7711C7.58485 22.3392 7.124 22.8001 6.5559 22.8001H4.26855C3.70045 22.8001 3.2396 22.3392 3.2396 21.7711V20.4893H3.23895Z"
          fill="#333D4B"/>
    <path d="M20.8059 11.7059L19.1575 6.50391C18.8325 5.47756 17.8796 4.78011 16.8032 4.78011H9.19685C8.1198 4.78011 7.16755 5.47756 6.8419 6.50391L5.19415 11.7059"
          fill="#313D4C"/>
    <path d="M18.9117 17.2172H7.08824C6.66184 17.2172 6.31604 16.872 6.31604 16.445C6.31604 16.0179 6.66184 15.6728 7.08824 15.6728H18.9111C19.3375 15.6728 19.6833 16.0179 19.6833 16.445C19.6833 16.872 19.3381 17.2172 18.9117 17.2172Z"
          fill="white"/>
</svg>
