<svg width="29" height="29" viewBox="0 0 29 29" fill="none" xmlns="http://www.w3.org/2000/svg">
    <path d="M22.1948 2.6001H6.55543C5.42913 2.6001 4.51562 3.5136 4.51562 4.6399V5.3196C4.51562 6.4459 5.42913 7.3594 6.55543 7.3594H22.1955C23.3218 7.3594 24.2353 8.2729 24.2353 9.3992V8.0391C24.2353 6.9128 23.3218 5.9993 22.1955 5.9993H6.55543C6.18023 5.9993 5.87572 5.6948 5.87572 5.3196V4.6399C5.87572 4.2647 6.18023 3.9602 6.55543 3.9602H22.1955C23.3225 3.9602 24.2353 4.8737 24.2353 6V4.6399C24.2353 3.5129 23.3211 2.6001 22.1948 2.6001Z"
          fill="#FFA300"/>
    <path d="M22.1948 7.36011H6.55543C5.42913 7.36011 4.51562 6.44661 4.51562 5.32031V24.3603C4.51562 25.4866 5.42913 26.4001 6.55543 26.4001H22.1955C23.3218 26.4001 24.2353 25.4866 24.2353 24.3603V9.39991C24.2353 8.27291 23.3211 7.36011 22.1948 7.36011ZM8.18992 11.4061C8.18992 11.0197 8.50352 10.7061 8.88992 10.7061H19.8589C20.2453 10.7061 20.5589 11.0197 20.5589 11.4061V14.0143C20.5589 14.4007 20.2453 14.7143 19.8589 14.7143H8.88992C8.50352 14.7143 8.18992 14.4007 8.18992 14.0143V11.4061Z"
          fill="#FFC33A"/>
    <path d="M22.1941 3.96017H6.5547C6.1795 3.96017 5.875 4.26467 5.875 4.63987V5.31957C5.875 5.69547 6.1795 5.99927 6.5547 5.99927H22.1948C23.3218 5.99927 24.2346 6.91277 24.2346 8.03907V5.99927C24.2346 4.87297 23.3211 3.95947 22.1948 3.95947L22.1941 3.96017Z"
          fill="#E5E8EB"/>
    <path d="M19.8604 10.7061H8.89141C8.50481 10.7061 8.19141 11.0195 8.19141 11.4061V14.0143C8.19141 14.4009 8.50481 14.7143 8.89141 14.7143H19.8604C20.247 14.7143 20.5604 14.4009 20.5604 14.0143V11.4061C20.5604 11.0195 20.247 10.7061 19.8604 10.7061Z"
          fill="white"/>
</svg>
