<svg width="26" height="26" viewBox="0 0 26 26" fill="none" xmlns="http://www.w3.org/2000/svg">
    <path d="M21.4673 7.07403C22.1701 6.37123 22.1701 5.22989 21.4673 4.5271C20.7645 3.8243 19.6231 3.8243 18.9203 4.5271L13 10.4531L7.07403 4.53272C6.37123 3.82992 5.22989 3.82992 4.5271 4.53272C3.8243 5.23551 3.8243 6.37685 4.5271 7.07965L10.4531 13L4.53272 18.926C3.82992 19.6288 3.82992 20.7701 4.53272 21.4729C5.23551 22.1757 6.37685 22.1757 7.07965 21.4729L13 15.5469L18.926 21.4673C19.6288 22.1701 20.7701 22.1701 21.4729 21.4673C22.1757 20.7645 22.1757 19.6231 21.4729 18.9203L15.5469 13L21.4673 7.07403Z"/>
</svg>
